ISO-10303-21;
HEADER;
FILE_DESCRIPTION(('FreeCAD Model'),'2;1');
FILE_NAME('Open CASCADE Shape Model','2026-09-02T16:58:50',(''),(''),
  'Open CASCADE STEP processor 7.8','FreeCAD','Unknown');
FILE_SCHEMA(('AUTOMOTIVE_DESIGN { 1 0 10303 214 1 1 1 1 }'));
ENDSEC;
DATA;
#1 = APPLICATION_PROTOCOL_DEFINITION('international standard',
  'automotive_design',2000,#2);
#2 = APPLICATION_CONTEXT(
  'core data for automotive mechanical design processes');
#3 = SHAPE_DEFINITION_REPRESENTATION(#4,#10);
#4 = PRODUCT_DEFINITION_SHAPE('','',#5);
#5 = PRODUCT_DEFINITION('design','',#6,#9);
#6 = PRODUCT_DEFINITION_FORMATION('','',#7);
#7 = PRODUCT('Spate','Spate','',(#8));
#8 = PRODUCT_CONTEXT('',#2,'mechanical');
#9 = PRODUCT_DEFINITION_CONTEXT('part definition',#2,'design');
#10 = ADVANCED_BREP_SHAPE_REPRESENTATION('',(#11,#15),#1884);
#11 = AXIS2_PLACEMENT_3D('',#12,#13,#14);
#12 = CARTESIAN_POINT('',(0.,0.,0.));
#13 = DIRECTION('',(0.,0.,1.));
#14 = DIRECTION('',(1.,0.,-0.));
#15 = MANIFOLD_SOLID_BREP('',#16);
#16 = CLOSED_SHELL('',(#17,#57,#257,#288,#321,#370,#417,#434,#458,#482,
    #499,#524,#555,#579,#603,#620,#652,#676,#701,#725,#750,#774,#799,
    #816,#841,#866,#883,#919,#936,#948,#1034,#1065,#1090,#1114,#1139,
    #1163,#1188,#1212,#1230,#1368,#1399,#1430,#1455,#1479,#1504,#1528,
    #1559,#1584,#1608,#1626,#1720,#1745,#1754,#1779,#1788,#1813,#1822,
    #1847,#1856,#1870));
#17 = ADVANCED_FACE('',(#18),#52,.F.);
#18 = FACE_BOUND('',#19,.F.);
#19 = EDGE_LOOP('',(#20,#30,#38,#46));
#20 = ORIENTED_EDGE('',*,*,#21,.T.);
#21 = EDGE_CURVE('',#22,#24,#26,.T.);
#22 = VERTEX_POINT('',#23);
#23 = CARTESIAN_POINT('',(82.,-15.2,0.));
#24 = VERTEX_POINT('',#25);
#25 = CARTESIAN_POINT('',(82.,-15.2,30.));
#26 = LINE('',#27,#28);
#27 = CARTESIAN_POINT('',(82.,-15.2,0.));
#28 = VECTOR('',#29,1.);
#29 = DIRECTION('',(0.,0.,1.));
#30 = ORIENTED_EDGE('',*,*,#31,.T.);
#31 = EDGE_CURVE('',#24,#32,#34,.T.);
#32 = VERTEX_POINT('',#33);
#33 = CARTESIAN_POINT('',(81.,-15.2,30.));
#34 = LINE('',#35,#36);
#35 = CARTESIAN_POINT('',(82.,-15.2,30.));
#36 = VECTOR('',#37,1.);
#37 = DIRECTION('',(-1.,0.,0.));
#38 = ORIENTED_EDGE('',*,*,#39,.F.);
#39 = EDGE_CURVE('',#40,#32,#42,.T.);
#40 = VERTEX_POINT('',#41);
#41 = CARTESIAN_POINT('',(81.,-15.2,0.));
#42 = LINE('',#43,#44);
#43 = CARTESIAN_POINT('',(81.,-15.2,0.));
#44 = VECTOR('',#45,1.);
#45 = DIRECTION('',(0.,0.,1.));
#46 = ORIENTED_EDGE('',*,*,#47,.F.);
#47 = EDGE_CURVE('',#22,#40,#48,.T.);
#48 = LINE('',#49,#50);
#49 = CARTESIAN_POINT('',(82.,-15.2,0.));
#50 = VECTOR('',#51,1.);
#51 = DIRECTION('',(-1.,0.,0.));
#52 = PLANE('',#53);
#53 = AXIS2_PLACEMENT_3D('',#54,#55,#56);
#54 = CARTESIAN_POINT('',(82.,-15.2,0.));
#55 = DIRECTION('',(0.,-1.,0.));
#56 = DIRECTION('',(-1.,0.,0.));
#57 = ADVANCED_FACE('',(#58,#115,#126,#160,#230,#241),#252,.F.);
#58 = FACE_BOUND('',#59,.F.);
#59 = EDGE_LOOP('',(#60,#70,#78,#84,#85,#93,#101,#109));
#60 = ORIENTED_EDGE('',*,*,#61,.F.);
#61 = EDGE_CURVE('',#62,#64,#66,.T.);
#62 = VERTEX_POINT('',#63);
#63 = CARTESIAN_POINT('',(82.,-224.8,0.));
#64 = VERTEX_POINT('',#65);
#65 = CARTESIAN_POINT('',(82.,-205.5,-4.5E-14));
#66 = LINE('',#67,#68);
#67 = CARTESIAN_POINT('',(82.,-224.8,0.));
#68 = VECTOR('',#69,1.);
#69 = DIRECTION('',(0.,1.,0.));
#70 = ORIENTED_EDGE('',*,*,#71,.T.);
#71 = EDGE_CURVE('',#62,#72,#74,.T.);
#72 = VERTEX_POINT('',#73);
#73 = CARTESIAN_POINT('',(82.,-224.8,30.));
#74 = LINE('',#75,#76);
#75 = CARTESIAN_POINT('',(82.,-224.8,0.));
#76 = VECTOR('',#77,1.);
#77 = DIRECTION('',(0.,0.,1.));
#78 = ORIENTED_EDGE('',*,*,#79,.T.);
#79 = EDGE_CURVE('',#72,#24,#80,.T.);
#80 = LINE('',#81,#82);
#81 = CARTESIAN_POINT('',(82.,-224.8,30.));
#82 = VECTOR('',#83,1.);
#83 = DIRECTION('',(0.,1.,0.));
#84 = ORIENTED_EDGE('',*,*,#21,.F.);
#85 = ORIENTED_EDGE('',*,*,#86,.F.);
#86 = EDGE_CURVE('',#87,#22,#89,.T.);
#87 = VERTEX_POINT('',#88);
#88 = CARTESIAN_POINT('',(82.,-125.5,-2.8E-14));
#89 = LINE('',#90,#91);
#90 = CARTESIAN_POINT('',(82.,-224.8,0.));
#91 = VECTOR('',#92,1.);
#92 = DIRECTION('',(0.,1.,0.));
#93 = ORIENTED_EDGE('',*,*,#94,.T.);
#94 = EDGE_CURVE('',#87,#95,#97,.T.);
#95 = VERTEX_POINT('',#96);
#96 = CARTESIAN_POINT('',(82.,-125.5,12.));
#97 = LINE('',#98,#99);
#98 = CARTESIAN_POINT('',(82.,-125.5,6.));
#99 = VECTOR('',#100,1.);
#100 = DIRECTION('',(0.,-2.2E-16,1.));
#101 = ORIENTED_EDGE('',*,*,#102,.T.);
#102 = EDGE_CURVE('',#95,#103,#105,.T.);
#103 = VERTEX_POINT('',#104);
#104 = CARTESIAN_POINT('',(82.,-205.5,12.));
#105 = LINE('',#106,#107);
#106 = CARTESIAN_POINT('',(82.,-215.15,12.));
#107 = VECTOR('',#108,1.);
#108 = DIRECTION('',(-0.,-1.,-2.2E-16));
#109 = ORIENTED_EDGE('',*,*,#110,.T.);
#110 = EDGE_CURVE('',#103,#64,#111,.T.);
#111 = LINE('',#112,#113);
#112 = CARTESIAN_POINT('',(82.,-205.5,-2.067E-14));
#113 = VECTOR('',#114,1.);
#114 = DIRECTION('',(0.,2.2E-16,-1.));
#115 = FACE_BOUND('',#116,.F.);
#116 = EDGE_LOOP('',(#117));
#117 = ORIENTED_EDGE('',*,*,#118,.F.);
#118 = EDGE_CURVE('',#119,#119,#121,.T.);
#119 = VERTEX_POINT('',#120);
#120 = CARTESIAN_POINT('',(82.,-37.5,17.));
#121 = CIRCLE('',#122,6.);
#122 = AXIS2_PLACEMENT_3D('',#123,#124,#125);
#123 = CARTESIAN_POINT('',(82.,-31.5,17.));
#124 = DIRECTION('',(-1.,4.4E-16,-2.2E-16));
#125 = DIRECTION('',(-4.4E-16,-1.,-2.2E-16));
#126 = FACE_BOUND('',#127,.F.);
#127 = EDGE_LOOP('',(#128,#138,#146,#154));
#128 = ORIENTED_EDGE('',*,*,#129,.T.);
#129 = EDGE_CURVE('',#130,#132,#134,.T.);
#130 = VERTEX_POINT('',#131);
#131 = CARTESIAN_POINT('',(82.,-224.,6.));
#132 = VERTEX_POINT('',#133);
#133 = CARTESIAN_POINT('',(82.,-214.,6.));
#134 = LINE('',#135,#136);
#135 = CARTESIAN_POINT('',(82.,-219.4,6.));
#136 = VECTOR('',#137,1.);
#137 = DIRECTION('',(0.,1.,2.2E-16));
#138 = ORIENTED_EDGE('',*,*,#139,.T.);
#139 = EDGE_CURVE('',#132,#140,#142,.T.);
#140 = VERTEX_POINT('',#141);
#141 = CARTESIAN_POINT('',(82.,-214.,18.));
#142 = LINE('',#143,#144);
#143 = CARTESIAN_POINT('',(82.,-214.,9.));
#144 = VECTOR('',#145,1.);
#145 = DIRECTION('',(0.,-2.2E-16,1.));
#146 = ORIENTED_EDGE('',*,*,#147,.T.);
#147 = EDGE_CURVE('',#140,#148,#150,.T.);
#148 = VERTEX_POINT('',#149);
#149 = CARTESIAN_POINT('',(82.,-224.,18.));
#150 = LINE('',#151,#152);
#151 = CARTESIAN_POINT('',(82.,-224.4,18.));
#152 = VECTOR('',#153,1.);
#153 = DIRECTION('',(-0.,-1.,-2.2E-16));
#154 = ORIENTED_EDGE('',*,*,#155,.T.);
#155 = EDGE_CURVE('',#148,#130,#156,.T.);
#156 = LINE('',#157,#158);
#157 = CARTESIAN_POINT('',(82.,-224.,3.));
#158 = VECTOR('',#159,1.);
#159 = DIRECTION('',(0.,2.2E-16,-1.));
#160 = FACE_BOUND('',#161,.F.);
#161 = EDGE_LOOP('',(#162,#173,#181,#190,#198,#207,#215,#224));
#162 = ORIENTED_EDGE('',*,*,#163,.T.);
#163 = EDGE_CURVE('',#164,#166,#168,.T.);
#164 = VERTEX_POINT('',#165);
#165 = CARTESIAN_POINT('',(82.,-112.,15.));
#166 = VERTEX_POINT('',#167);
#167 = CARTESIAN_POINT('',(82.,-113.,14.));
#168 = CIRCLE('',#169,1.);
#169 = AXIS2_PLACEMENT_3D('',#170,#171,#172);
#170 = CARTESIAN_POINT('',(82.,-112.,14.));
#171 = DIRECTION('',(1.,0.,0.));
#172 = DIRECTION('',(0.,1.,0.));
#173 = ORIENTED_EDGE('',*,*,#174,.T.);
#174 = EDGE_CURVE('',#166,#175,#177,.T.);
#175 = VERTEX_POINT('',#176);
#176 = CARTESIAN_POINT('',(82.,-113.,8.));
#177 = LINE('',#178,#179);
#178 = CARTESIAN_POINT('',(82.,-113.,14.));
#179 = VECTOR('',#180,1.);
#180 = DIRECTION('',(0.,0.,-1.));
#181 = ORIENTED_EDGE('',*,*,#182,.T.);
#182 = EDGE_CURVE('',#175,#183,#185,.T.);
#183 = VERTEX_POINT('',#184);
#184 = CARTESIAN_POINT('',(82.,-112.,7.));
#185 = CIRCLE('',#186,1.);
#186 = AXIS2_PLACEMENT_3D('',#187,#188,#189);
#187 = CARTESIAN_POINT('',(82.,-112.,8.));
#188 = DIRECTION('',(1.,0.,0.));
#189 = DIRECTION('',(0.,1.,0.));
#190 = ORIENTED_EDGE('',*,*,#191,.T.);
#191 = EDGE_CURVE('',#183,#192,#194,.T.);
#192 = VERTEX_POINT('',#193);
#193 = CARTESIAN_POINT('',(82.,-106.,7.));
#194 = LINE('',#195,#196);
#195 = CARTESIAN_POINT('',(82.,-112.,7.));
#196 = VECTOR('',#197,1.);
#197 = DIRECTION('',(0.,1.,0.));
#198 = ORIENTED_EDGE('',*,*,#199,.T.);
#199 = EDGE_CURVE('',#192,#200,#202,.T.);
#200 = VERTEX_POINT('',#201);
#201 = CARTESIAN_POINT('',(82.,-105.,8.));
#202 = CIRCLE('',#203,1.);
#203 = AXIS2_PLACEMENT_3D('',#204,#205,#206);
#204 = CARTESIAN_POINT('',(82.,-106.,8.));
#205 = DIRECTION('',(1.,0.,0.));
#206 = DIRECTION('',(0.,1.,0.));
#207 = ORIENTED_EDGE('',*,*,#208,.T.);
#208 = EDGE_CURVE('',#200,#209,#211,.T.);
#209 = VERTEX_POINT('',#210);
#210 = CARTESIAN_POINT('',(82.,-105.,14.));
#211 = LINE('',#212,#213);
#212 = CARTESIAN_POINT('',(82.,-105.,8.));
#213 = VECTOR('',#214,1.);
#214 = DIRECTION('',(0.,0.,1.));
#215 = ORIENTED_EDGE('',*,*,#216,.T.);
#216 = EDGE_CURVE('',#209,#217,#219,.T.);
#217 = VERTEX_POINT('',#218);
#218 = CARTESIAN_POINT('',(82.,-106.,15.));
#219 = CIRCLE('',#220,1.);
#220 = AXIS2_PLACEMENT_3D('',#221,#222,#223);
#221 = CARTESIAN_POINT('',(82.,-106.,14.));
#222 = DIRECTION('',(1.,0.,0.));
#223 = DIRECTION('',(0.,1.,0.));
#224 = ORIENTED_EDGE('',*,*,#225,.T.);
#225 = EDGE_CURVE('',#217,#164,#226,.T.);
#226 = LINE('',#227,#228);
#227 = CARTESIAN_POINT('',(82.,-106.,15.));
#228 = VECTOR('',#229,1.);
#229 = DIRECTION('',(0.,-1.,0.));
#230 = FACE_BOUND('',#231,.F.);
#231 = EDGE_LOOP('',(#232));
#232 = ORIENTED_EDGE('',*,*,#233,.F.);
#233 = EDGE_CURVE('',#234,#234,#236,.T.);
#234 = VERTEX_POINT('',#235);
#235 = CARTESIAN_POINT('',(82.,-92.,11.5));
#236 = CIRCLE('',#237,5.);
#237 = AXIS2_PLACEMENT_3D('',#238,#239,#240);
#238 = CARTESIAN_POINT('',(82.,-87.,11.5));
#239 = DIRECTION('',(-1.,4.4E-16,-2.2E-16));
#240 = DIRECTION('',(-4.4E-16,-1.,-2.2E-16));
#241 = FACE_BOUND('',#242,.F.);
#242 = EDGE_LOOP('',(#243));
#243 = ORIENTED_EDGE('',*,*,#244,.F.);
#244 = EDGE_CURVE('',#245,#245,#247,.T.);
#245 = VERTEX_POINT('',#246);
#246 = CARTESIAN_POINT('',(82.,-77.5,11.5));
#247 = CIRCLE('',#248,5.);
#248 = AXIS2_PLACEMENT_3D('',#249,#250,#251);
#249 = CARTESIAN_POINT('',(82.,-72.5,11.5));
#250 = DIRECTION('',(-1.,4.4E-16,-2.2E-16));
#251 = DIRECTION('',(-4.4E-16,-1.,-2.2E-16));
#252 = PLANE('',#253);
#253 = AXIS2_PLACEMENT_3D('',#254,#255,#256);
#254 = CARTESIAN_POINT('',(82.,-224.8,0.));
#255 = DIRECTION('',(-1.,0.,0.));
#256 = DIRECTION('',(0.,1.,0.));
#257 = ADVANCED_FACE('',(#258),#283,.F.);
#258 = FACE_BOUND('',#259,.F.);
#259 = EDGE_LOOP('',(#260,#261,#269,#277));
#260 = ORIENTED_EDGE('',*,*,#39,.T.);
#261 = ORIENTED_EDGE('',*,*,#262,.T.);
#262 = EDGE_CURVE('',#32,#263,#265,.T.);
#263 = VERTEX_POINT('',#264);
#264 = CARTESIAN_POINT('',(81.,-10.1,30.));
#265 = LINE('',#266,#267);
#266 = CARTESIAN_POINT('',(81.,-15.2,30.));
#267 = VECTOR('',#268,1.);
#268 = DIRECTION('',(0.,1.,0.));
#269 = ORIENTED_EDGE('',*,*,#270,.F.);
#270 = EDGE_CURVE('',#271,#263,#273,.T.);
#271 = VERTEX_POINT('',#272);
#272 = CARTESIAN_POINT('',(81.,-10.1,0.));
#273 = LINE('',#274,#275);
#274 = CARTESIAN_POINT('',(81.,-10.1,0.));
#275 = VECTOR('',#276,1.);
#276 = DIRECTION('',(0.,0.,1.));
#277 = ORIENTED_EDGE('',*,*,#278,.F.);
#278 = EDGE_CURVE('',#40,#271,#279,.T.);
#279 = LINE('',#280,#281);
#280 = CARTESIAN_POINT('',(81.,-15.2,0.));
#281 = VECTOR('',#282,1.);
#282 = DIRECTION('',(0.,1.,0.));
#283 = PLANE('',#284);
#284 = AXIS2_PLACEMENT_3D('',#285,#286,#287);
#285 = CARTESIAN_POINT('',(81.,-15.2,0.));
#286 = DIRECTION('',(-1.,0.,0.));
#287 = DIRECTION('',(0.,1.,0.));
#288 = ADVANCED_FACE('',(#289),#316,.F.);
#289 = FACE_BOUND('',#290,.F.);
#290 = EDGE_LOOP('',(#291,#292,#293,#294,#302,#310));
#291 = ORIENTED_EDGE('',*,*,#86,.T.);
#292 = ORIENTED_EDGE('',*,*,#47,.T.);
#293 = ORIENTED_EDGE('',*,*,#278,.T.);
#294 = ORIENTED_EDGE('',*,*,#295,.T.);
#295 = EDGE_CURVE('',#271,#296,#298,.T.);
#296 = VERTEX_POINT('',#297);
#297 = CARTESIAN_POINT('',(79.,-10.1,0.));
#298 = LINE('',#299,#300);
#299 = CARTESIAN_POINT('',(81.,-10.1,0.));
#300 = VECTOR('',#301,1.);
#301 = DIRECTION('',(-1.,0.,0.));
#302 = ORIENTED_EDGE('',*,*,#303,.T.);
#303 = EDGE_CURVE('',#296,#304,#306,.T.);
#304 = VERTEX_POINT('',#305);
#305 = CARTESIAN_POINT('',(79.,-125.5,-2.8E-14));
#306 = LINE('',#307,#308);
#307 = CARTESIAN_POINT('',(79.,-10.1,0.));
#308 = VECTOR('',#309,1.);
#309 = DIRECTION('',(0.,-1.,0.));
#310 = ORIENTED_EDGE('',*,*,#311,.T.);
#311 = EDGE_CURVE('',#304,#87,#312,.T.);
#312 = LINE('',#313,#314);
#313 = CARTESIAN_POINT('',(79.,-125.5,-2.787E-14));
#314 = VECTOR('',#315,1.);
#315 = DIRECTION('',(1.,-1.1E-16,1.1E-16));
#316 = PLANE('',#317);
#317 = AXIS2_PLACEMENT_3D('',#318,#319,#320);
#318 = CARTESIAN_POINT('',(80.47710951526,-119.9999999999,0.));
#319 = DIRECTION('',(0.,0.,1.));
#320 = DIRECTION('',(1.,0.,0.));
#321 = ADVANCED_FACE('',(#322),#365,.T.);
#322 = FACE_BOUND('',#323,.T.);
#323 = EDGE_LOOP('',(#324,#325,#326,#334,#342,#350,#358,#364));
#324 = ORIENTED_EDGE('',*,*,#31,.T.);
#325 = ORIENTED_EDGE('',*,*,#262,.T.);
#326 = ORIENTED_EDGE('',*,*,#327,.T.);
#327 = EDGE_CURVE('',#263,#328,#330,.T.);
#328 = VERTEX_POINT('',#329);
#329 = CARTESIAN_POINT('',(79.,-10.1,30.));
#330 = LINE('',#331,#332);
#331 = CARTESIAN_POINT('',(81.,-10.1,30.));
#332 = VECTOR('',#333,1.);
#333 = DIRECTION('',(-1.,0.,0.));
#334 = ORIENTED_EDGE('',*,*,#335,.T.);
#335 = EDGE_CURVE('',#328,#336,#338,.T.);
#336 = VERTEX_POINT('',#337);
#337 = CARTESIAN_POINT('',(79.,-229.8999999999,30.));
#338 = LINE('',#339,#340);
#339 = CARTESIAN_POINT('',(79.,-10.1,30.));
#340 = VECTOR('',#341,1.);
#341 = DIRECTION('',(0.,-1.,0.));
#342 = ORIENTED_EDGE('',*,*,#343,.T.);
#343 = EDGE_CURVE('',#336,#344,#346,.T.);
#344 = VERTEX_POINT('',#345);
#345 = CARTESIAN_POINT('',(80.99999999994,-229.8999999999,30.));
#346 = LINE('',#347,#348);
#347 = CARTESIAN_POINT('',(79.,-229.8999999999,30.));
#348 = VECTOR('',#349,1.);
#349 = DIRECTION('',(1.,0.,0.));
#350 = ORIENTED_EDGE('',*,*,#351,.T.);
#351 = EDGE_CURVE('',#344,#352,#354,.T.);
#352 = VERTEX_POINT('',#353);
#353 = CARTESIAN_POINT('',(80.99999999994,-224.8,30.));
#354 = LINE('',#355,#356);
#355 = CARTESIAN_POINT('',(80.99999999994,-229.8999999999,30.));
#356 = VECTOR('',#357,1.);
#357 = DIRECTION('',(0.,1.,0.));
#358 = ORIENTED_EDGE('',*,*,#359,.T.);
#359 = EDGE_CURVE('',#352,#72,#360,.T.);
#360 = LINE('',#361,#362);
#361 = CARTESIAN_POINT('',(80.99999999994,-224.8,30.));
#362 = VECTOR('',#363,1.);
#363 = DIRECTION('',(1.,0.,0.));
#364 = ORIENTED_EDGE('',*,*,#79,.T.);
#365 = PLANE('',#366);
#366 = AXIS2_PLACEMENT_3D('',#367,#368,#369);
#367 = CARTESIAN_POINT('',(80.47710951526,-119.9999999999,30.));
#368 = DIRECTION('',(0.,0.,1.));
#369 = DIRECTION('',(1.,0.,0.));
#370 = ADVANCED_FACE('',(#371),#412,.F.);
#371 = FACE_BOUND('',#372,.F.);
#372 = EDGE_LOOP('',(#373,#374,#382,#390,#398,#406));
#373 = ORIENTED_EDGE('',*,*,#61,.T.);
#374 = ORIENTED_EDGE('',*,*,#375,.F.);
#375 = EDGE_CURVE('',#376,#64,#378,.T.);
#376 = VERTEX_POINT('',#377);
#377 = CARTESIAN_POINT('',(79.,-205.5,-4.6E-14));
#378 = LINE('',#379,#380);
#379 = CARTESIAN_POINT('',(79.,-205.5,-4.563E-14));
#380 = VECTOR('',#381,1.);
#381 = DIRECTION('',(1.,-1.1E-16,1.1E-16));
#382 = ORIENTED_EDGE('',*,*,#383,.T.);
#383 = EDGE_CURVE('',#376,#384,#386,.T.);
#384 = VERTEX_POINT('',#385);
#385 = CARTESIAN_POINT('',(79.,-229.8999999999,0.));
#386 = LINE('',#387,#388);
#387 = CARTESIAN_POINT('',(79.,-10.1,0.));
#388 = VECTOR('',#389,1.);
#389 = DIRECTION('',(0.,-1.,0.));
#390 = ORIENTED_EDGE('',*,*,#391,.T.);
#391 = EDGE_CURVE('',#384,#392,#394,.T.);
#392 = VERTEX_POINT('',#393);
#393 = CARTESIAN_POINT('',(80.99999999994,-229.8999999999,0.));
#394 = LINE('',#395,#396);
#395 = CARTESIAN_POINT('',(79.,-229.8999999999,0.));
#396 = VECTOR('',#397,1.);
#397 = DIRECTION('',(1.,0.,0.));
#398 = ORIENTED_EDGE('',*,*,#399,.T.);
#399 = EDGE_CURVE('',#392,#400,#402,.T.);
#400 = VERTEX_POINT('',#401);
#401 = CARTESIAN_POINT('',(80.99999999994,-224.8,0.));
#402 = LINE('',#403,#404);
#403 = CARTESIAN_POINT('',(80.99999999994,-229.8999999999,0.));
#404 = VECTOR('',#405,1.);
#405 = DIRECTION('',(0.,1.,0.));
#406 = ORIENTED_EDGE('',*,*,#407,.T.);
#407 = EDGE_CURVE('',#400,#62,#408,.T.);
#408 = LINE('',#409,#410);
#409 = CARTESIAN_POINT('',(80.99999999994,-224.8,0.));
#410 = VECTOR('',#411,1.);
#411 = DIRECTION('',(1.,0.,0.));
#412 = PLANE('',#413);
#413 = AXIS2_PLACEMENT_3D('',#414,#415,#416);
#414 = CARTESIAN_POINT('',(80.47710951526,-119.9999999999,0.));
#415 = DIRECTION('',(0.,0.,1.));
#416 = DIRECTION('',(1.,0.,0.));
#417 = ADVANCED_FACE('',(#418),#429,.F.);
#418 = FACE_BOUND('',#419,.F.);
#419 = EDGE_LOOP('',(#420,#426,#427,#428));
#420 = ORIENTED_EDGE('',*,*,#421,.T.);
#421 = EDGE_CURVE('',#400,#352,#422,.T.);
#422 = LINE('',#423,#424);
#423 = CARTESIAN_POINT('',(80.99999999994,-224.8,0.));
#424 = VECTOR('',#425,1.);
#425 = DIRECTION('',(0.,0.,1.));
#426 = ORIENTED_EDGE('',*,*,#359,.T.);
#427 = ORIENTED_EDGE('',*,*,#71,.F.);
#428 = ORIENTED_EDGE('',*,*,#407,.F.);
#429 = PLANE('',#430);
#430 = AXIS2_PLACEMENT_3D('',#431,#432,#433);
#431 = CARTESIAN_POINT('',(80.99999999994,-224.8,0.));
#432 = DIRECTION('',(0.,1.,0.));
#433 = DIRECTION('',(1.,0.,0.));
#434 = ADVANCED_FACE('',(#435),#453,.F.);
#435 = FACE_BOUND('',#436,.F.);
#436 = EDGE_LOOP('',(#437,#445,#446,#447));
#437 = ORIENTED_EDGE('',*,*,#438,.F.);
#438 = EDGE_CURVE('',#376,#439,#441,.T.);
#439 = VERTEX_POINT('',#440);
#440 = CARTESIAN_POINT('',(79.,-205.5,12.));
#441 = LINE('',#442,#443);
#442 = CARTESIAN_POINT('',(79.,-205.5,0.));
#443 = VECTOR('',#444,1.);
#444 = DIRECTION('',(0.,0.,1.));
#445 = ORIENTED_EDGE('',*,*,#375,.T.);
#446 = ORIENTED_EDGE('',*,*,#110,.F.);
#447 = ORIENTED_EDGE('',*,*,#448,.F.);
#448 = EDGE_CURVE('',#439,#103,#449,.T.);
#449 = LINE('',#450,#451);
#450 = CARTESIAN_POINT('',(79.,-205.5,12.));
#451 = VECTOR('',#452,1.);
#452 = DIRECTION('',(1.,-1.1E-16,1.1E-16));
#453 = PLANE('',#454);
#454 = AXIS2_PLACEMENT_3D('',#455,#456,#457);
#455 = CARTESIAN_POINT('',(79.,-205.5,-4.563E-14));
#456 = DIRECTION('',(-1.1E-16,-1.,-2.2E-16));
#457 = DIRECTION('',(-2.2E-16,-2.2E-16,1.));
#458 = ADVANCED_FACE('',(#459),#477,.F.);
#459 = FACE_BOUND('',#460,.F.);
#460 = EDGE_LOOP('',(#461,#469,#470,#471));
#461 = ORIENTED_EDGE('',*,*,#462,.F.);
#462 = EDGE_CURVE('',#439,#463,#465,.T.);
#463 = VERTEX_POINT('',#464);
#464 = CARTESIAN_POINT('',(79.,-125.5,12.));
#465 = LINE('',#466,#467);
#466 = CARTESIAN_POINT('',(79.,-205.5,12.));
#467 = VECTOR('',#468,1.);
#468 = DIRECTION('',(0.,1.,0.));
#469 = ORIENTED_EDGE('',*,*,#448,.T.);
#470 = ORIENTED_EDGE('',*,*,#102,.F.);
#471 = ORIENTED_EDGE('',*,*,#472,.F.);
#472 = EDGE_CURVE('',#463,#95,#473,.T.);
#473 = LINE('',#474,#475);
#474 = CARTESIAN_POINT('',(79.,-125.5,12.));
#475 = VECTOR('',#476,1.);
#476 = DIRECTION('',(1.,-1.1E-16,1.1E-16));
#477 = PLANE('',#478);
#478 = AXIS2_PLACEMENT_3D('',#479,#480,#481);
#479 = CARTESIAN_POINT('',(79.,-205.5,12.));
#480 = DIRECTION('',(-1.1E-16,-2.2E-16,1.));
#481 = DIRECTION('',(4.4E-16,1.,2.2E-16));
#482 = ADVANCED_FACE('',(#483),#494,.F.);
#483 = FACE_BOUND('',#484,.F.);
#484 = EDGE_LOOP('',(#485,#491,#492,#493));
#485 = ORIENTED_EDGE('',*,*,#486,.F.);
#486 = EDGE_CURVE('',#463,#304,#487,.T.);
#487 = LINE('',#488,#489);
#488 = CARTESIAN_POINT('',(79.,-125.5,12.));
#489 = VECTOR('',#490,1.);
#490 = DIRECTION('',(0.,0.,-1.));
#491 = ORIENTED_EDGE('',*,*,#472,.T.);
#492 = ORIENTED_EDGE('',*,*,#94,.F.);
#493 = ORIENTED_EDGE('',*,*,#311,.F.);
#494 = PLANE('',#495);
#495 = AXIS2_PLACEMENT_3D('',#496,#497,#498);
#496 = CARTESIAN_POINT('',(79.,-125.5,12.));
#497 = DIRECTION('',(1.1E-16,1.,2.2E-16));
#498 = DIRECTION('',(2.2E-16,2.2E-16,-1.));
#499 = ADVANCED_FACE('',(#500),#519,.F.);
#500 = FACE_BOUND('',#501,.F.);
#501 = EDGE_LOOP('',(#502,#510,#517,#518));
#502 = ORIENTED_EDGE('',*,*,#503,.F.);
#503 = EDGE_CURVE('',#504,#119,#506,.T.);
#504 = VERTEX_POINT('',#505);
#505 = CARTESIAN_POINT('',(79.,-37.5,17.));
#506 = LINE('',#507,#508);
#507 = CARTESIAN_POINT('',(79.,-37.5,17.));
#508 = VECTOR('',#509,1.);
#509 = DIRECTION('',(1.,-1.1E-16,1.1E-16));
#510 = ORIENTED_EDGE('',*,*,#511,.F.);
#511 = EDGE_CURVE('',#504,#504,#512,.T.);
#512 = CIRCLE('',#513,6.);
#513 = AXIS2_PLACEMENT_3D('',#514,#515,#516);
#514 = CARTESIAN_POINT('',(79.,-31.5,17.));
#515 = DIRECTION('',(-1.,0.,0.));
#516 = DIRECTION('',(0.,-1.,0.));
#517 = ORIENTED_EDGE('',*,*,#503,.T.);
#518 = ORIENTED_EDGE('',*,*,#118,.T.);
#519 = CYLINDRICAL_SURFACE('',#520,6.);
#520 = AXIS2_PLACEMENT_3D('',#521,#522,#523);
#521 = CARTESIAN_POINT('',(79.,-31.5,17.));
#522 = DIRECTION('',(-1.,4.4E-16,-2.2E-16));
#523 = DIRECTION('',(-4.4E-16,-1.,-2.2E-16));
#524 = ADVANCED_FACE('',(#525),#550,.F.);
#525 = FACE_BOUND('',#526,.F.);
#526 = EDGE_LOOP('',(#527,#537,#543,#544));
#527 = ORIENTED_EDGE('',*,*,#528,.F.);
#528 = EDGE_CURVE('',#529,#531,#533,.T.);
#529 = VERTEX_POINT('',#530);
#530 = CARTESIAN_POINT('',(79.,-214.,6.));
#531 = VERTEX_POINT('',#532);
#532 = CARTESIAN_POINT('',(79.,-224.,6.));
#533 = LINE('',#534,#535);
#534 = CARTESIAN_POINT('',(79.,-214.,6.));
#535 = VECTOR('',#536,1.);
#536 = DIRECTION('',(0.,-1.,0.));
#537 = ORIENTED_EDGE('',*,*,#538,.T.);
#538 = EDGE_CURVE('',#529,#132,#539,.T.);
#539 = LINE('',#540,#541);
#540 = CARTESIAN_POINT('',(79.,-214.,6.));
#541 = VECTOR('',#542,1.);
#542 = DIRECTION('',(1.,-1.1E-16,1.1E-16));
#543 = ORIENTED_EDGE('',*,*,#129,.F.);
#544 = ORIENTED_EDGE('',*,*,#545,.F.);
#545 = EDGE_CURVE('',#531,#130,#546,.T.);
#546 = LINE('',#547,#548);
#547 = CARTESIAN_POINT('',(79.,-224.,6.));
#548 = VECTOR('',#549,1.);
#549 = DIRECTION('',(1.,-1.1E-16,1.1E-16));
#550 = PLANE('',#551);
#551 = AXIS2_PLACEMENT_3D('',#552,#553,#554);
#552 = CARTESIAN_POINT('',(79.,-214.,6.));
#553 = DIRECTION('',(1.1E-16,2.2E-16,-1.));
#554 = DIRECTION('',(-4.4E-16,-1.,-2.2E-16));
#555 = ADVANCED_FACE('',(#556),#574,.F.);
#556 = FACE_BOUND('',#557,.F.);
#557 = EDGE_LOOP('',(#558,#566,#567,#568));
#558 = ORIENTED_EDGE('',*,*,#559,.F.);
#559 = EDGE_CURVE('',#531,#560,#562,.T.);
#560 = VERTEX_POINT('',#561);
#561 = CARTESIAN_POINT('',(79.,-224.,18.));
#562 = LINE('',#563,#564);
#563 = CARTESIAN_POINT('',(79.,-224.,6.));
#564 = VECTOR('',#565,1.);
#565 = DIRECTION('',(0.,0.,1.));
#566 = ORIENTED_EDGE('',*,*,#545,.T.);
#567 = ORIENTED_EDGE('',*,*,#155,.F.);
#568 = ORIENTED_EDGE('',*,*,#569,.F.);
#569 = EDGE_CURVE('',#560,#148,#570,.T.);
#570 = LINE('',#571,#572);
#571 = CARTESIAN_POINT('',(79.,-224.,18.));
#572 = VECTOR('',#573,1.);
#573 = DIRECTION('',(1.,-1.1E-16,1.1E-16));
#574 = PLANE('',#575);
#575 = AXIS2_PLACEMENT_3D('',#576,#577,#578);
#576 = CARTESIAN_POINT('',(79.,-224.,6.));
#577 = DIRECTION('',(-1.1E-16,-1.,-2.2E-16));
#578 = DIRECTION('',(-2.2E-16,-2.2E-16,1.));
#579 = ADVANCED_FACE('',(#580),#598,.F.);
#580 = FACE_BOUND('',#581,.F.);
#581 = EDGE_LOOP('',(#582,#590,#596,#597));
#582 = ORIENTED_EDGE('',*,*,#583,.F.);
#583 = EDGE_CURVE('',#584,#529,#586,.T.);
#584 = VERTEX_POINT('',#585);
#585 = CARTESIAN_POINT('',(79.,-214.,18.));
#586 = LINE('',#587,#588);
#587 = CARTESIAN_POINT('',(79.,-214.,18.));
#588 = VECTOR('',#589,1.);
#589 = DIRECTION('',(0.,0.,-1.));
#590 = ORIENTED_EDGE('',*,*,#591,.T.);
#591 = EDGE_CURVE('',#584,#140,#592,.T.);
#592 = LINE('',#593,#594);
#593 = CARTESIAN_POINT('',(79.,-214.,18.));
#594 = VECTOR('',#595,1.);
#595 = DIRECTION('',(1.,-1.1E-16,1.1E-16));
#596 = ORIENTED_EDGE('',*,*,#139,.F.);
#597 = ORIENTED_EDGE('',*,*,#538,.F.);
#598 = PLANE('',#599);
#599 = AXIS2_PLACEMENT_3D('',#600,#601,#602);
#600 = CARTESIAN_POINT('',(79.,-214.,18.));
#601 = DIRECTION('',(1.1E-16,1.,2.2E-16));
#602 = DIRECTION('',(2.2E-16,2.2E-16,-1.));
#603 = ADVANCED_FACE('',(#604),#615,.F.);
#604 = FACE_BOUND('',#605,.F.);
#605 = EDGE_LOOP('',(#606,#612,#613,#614));
#606 = ORIENTED_EDGE('',*,*,#607,.F.);
#607 = EDGE_CURVE('',#560,#584,#608,.T.);
#608 = LINE('',#609,#610);
#609 = CARTESIAN_POINT('',(79.,-224.,18.));
#610 = VECTOR('',#611,1.);
#611 = DIRECTION('',(0.,1.,0.));
#612 = ORIENTED_EDGE('',*,*,#569,.T.);
#613 = ORIENTED_EDGE('',*,*,#147,.F.);
#614 = ORIENTED_EDGE('',*,*,#591,.F.);
#615 = PLANE('',#616);
#616 = AXIS2_PLACEMENT_3D('',#617,#618,#619);
#617 = CARTESIAN_POINT('',(79.,-224.,18.));
#618 = DIRECTION('',(-1.1E-16,-2.2E-16,1.));
#619 = DIRECTION('',(4.4E-16,1.,2.2E-16));
#620 = ADVANCED_FACE('',(#621),#647,.T.);
#621 = FACE_BOUND('',#622,.F.);
#622 = EDGE_LOOP('',(#623,#631,#640,#646));
#623 = ORIENTED_EDGE('',*,*,#624,.T.);
#624 = EDGE_CURVE('',#164,#625,#627,.T.);
#625 = VERTEX_POINT('',#626);
#626 = CARTESIAN_POINT('',(82.4,-112.,15.));
#627 = LINE('',#628,#629);
#628 = CARTESIAN_POINT('',(82.,-112.,15.));
#629 = VECTOR('',#630,1.);
#630 = DIRECTION('',(1.,0.,0.));
#631 = ORIENTED_EDGE('',*,*,#632,.T.);
#632 = EDGE_CURVE('',#625,#633,#635,.T.);
#633 = VERTEX_POINT('',#634);
#634 = CARTESIAN_POINT('',(82.4,-113.,14.));
#635 = CIRCLE('',#636,1.);
#636 = AXIS2_PLACEMENT_3D('',#637,#638,#639);
#637 = CARTESIAN_POINT('',(82.4,-112.,14.));
#638 = DIRECTION('',(1.,0.,0.));
#639 = DIRECTION('',(0.,1.,0.));
#640 = ORIENTED_EDGE('',*,*,#641,.F.);
#641 = EDGE_CURVE('',#166,#633,#642,.T.);
#642 = LINE('',#643,#644);
#643 = CARTESIAN_POINT('',(82.,-113.,14.));
#644 = VECTOR('',#645,1.);
#645 = DIRECTION('',(1.,0.,0.));
#646 = ORIENTED_EDGE('',*,*,#163,.F.);
#647 = CYLINDRICAL_SURFACE('',#648,1.);
#648 = AXIS2_PLACEMENT_3D('',#649,#650,#651);
#649 = CARTESIAN_POINT('',(82.,-112.,14.));
#650 = DIRECTION('',(-1.,-0.,-0.));
#651 = DIRECTION('',(0.,1.,0.));
#652 = ADVANCED_FACE('',(#653),#671,.F.);
#653 = FACE_BOUND('',#654,.F.);
#654 = EDGE_LOOP('',(#655,#663,#669,#670));
#655 = ORIENTED_EDGE('',*,*,#656,.T.);
#656 = EDGE_CURVE('',#217,#657,#659,.T.);
#657 = VERTEX_POINT('',#658);
#658 = CARTESIAN_POINT('',(82.4,-106.,15.));
#659 = LINE('',#660,#661);
#660 = CARTESIAN_POINT('',(82.,-106.,15.));
#661 = VECTOR('',#662,1.);
#662 = DIRECTION('',(1.,0.,0.));
#663 = ORIENTED_EDGE('',*,*,#664,.T.);
#664 = EDGE_CURVE('',#657,#625,#665,.T.);
#665 = LINE('',#666,#667);
#666 = CARTESIAN_POINT('',(82.4,-106.,15.));
#667 = VECTOR('',#668,1.);
#668 = DIRECTION('',(0.,-1.,0.));
#669 = ORIENTED_EDGE('',*,*,#624,.F.);
#670 = ORIENTED_EDGE('',*,*,#225,.F.);
#671 = PLANE('',#672);
#672 = AXIS2_PLACEMENT_3D('',#673,#674,#675);
#673 = CARTESIAN_POINT('',(82.,-106.,15.));
#674 = DIRECTION('',(0.,0.,-1.));
#675 = DIRECTION('',(0.,-1.,0.));
#676 = ADVANCED_FACE('',(#677),#696,.T.);
#677 = FACE_BOUND('',#678,.F.);
#678 = EDGE_LOOP('',(#679,#687,#694,#695));
#679 = ORIENTED_EDGE('',*,*,#680,.T.);
#680 = EDGE_CURVE('',#209,#681,#683,.T.);
#681 = VERTEX_POINT('',#682);
#682 = CARTESIAN_POINT('',(82.4,-105.,14.));
#683 = LINE('',#684,#685);
#684 = CARTESIAN_POINT('',(82.,-105.,14.));
#685 = VECTOR('',#686,1.);
#686 = DIRECTION('',(1.,0.,0.));
#687 = ORIENTED_EDGE('',*,*,#688,.T.);
#688 = EDGE_CURVE('',#681,#657,#689,.T.);
#689 = CIRCLE('',#690,1.);
#690 = AXIS2_PLACEMENT_3D('',#691,#692,#693);
#691 = CARTESIAN_POINT('',(82.4,-106.,14.));
#692 = DIRECTION('',(1.,0.,0.));
#693 = DIRECTION('',(0.,1.,0.));
#694 = ORIENTED_EDGE('',*,*,#656,.F.);
#695 = ORIENTED_EDGE('',*,*,#216,.F.);
#696 = CYLINDRICAL_SURFACE('',#697,1.);
#697 = AXIS2_PLACEMENT_3D('',#698,#699,#700);
#698 = CARTESIAN_POINT('',(82.,-106.,14.));
#699 = DIRECTION('',(-1.,-0.,-0.));
#700 = DIRECTION('',(0.,1.,0.));
#701 = ADVANCED_FACE('',(#702),#720,.F.);
#702 = FACE_BOUND('',#703,.F.);
#703 = EDGE_LOOP('',(#704,#712,#718,#719));
#704 = ORIENTED_EDGE('',*,*,#705,.T.);
#705 = EDGE_CURVE('',#200,#706,#708,.T.);
#706 = VERTEX_POINT('',#707);
#707 = CARTESIAN_POINT('',(82.4,-105.,8.));
#708 = LINE('',#709,#710);
#709 = CARTESIAN_POINT('',(82.,-105.,8.));
#710 = VECTOR('',#711,1.);
#711 = DIRECTION('',(1.,0.,0.));
#712 = ORIENTED_EDGE('',*,*,#713,.T.);
#713 = EDGE_CURVE('',#706,#681,#714,.T.);
#714 = LINE('',#715,#716);
#715 = CARTESIAN_POINT('',(82.4,-105.,8.));
#716 = VECTOR('',#717,1.);
#717 = DIRECTION('',(0.,0.,1.));
#718 = ORIENTED_EDGE('',*,*,#680,.F.);
#719 = ORIENTED_EDGE('',*,*,#208,.F.);
#720 = PLANE('',#721);
#721 = AXIS2_PLACEMENT_3D('',#722,#723,#724);
#722 = CARTESIAN_POINT('',(82.,-105.,8.));
#723 = DIRECTION('',(0.,-1.,0.));
#724 = DIRECTION('',(0.,0.,1.));
#725 = ADVANCED_FACE('',(#726),#745,.T.);
#726 = FACE_BOUND('',#727,.F.);
#727 = EDGE_LOOP('',(#728,#736,#743,#744));
#728 = ORIENTED_EDGE('',*,*,#729,.T.);
#729 = EDGE_CURVE('',#192,#730,#732,.T.);
#730 = VERTEX_POINT('',#731);
#731 = CARTESIAN_POINT('',(82.4,-106.,7.));
#732 = LINE('',#733,#734);
#733 = CARTESIAN_POINT('',(82.,-106.,7.));
#734 = VECTOR('',#735,1.);
#735 = DIRECTION('',(1.,0.,0.));
#736 = ORIENTED_EDGE('',*,*,#737,.T.);
#737 = EDGE_CURVE('',#730,#706,#738,.T.);
#738 = CIRCLE('',#739,1.);
#739 = AXIS2_PLACEMENT_3D('',#740,#741,#742);
#740 = CARTESIAN_POINT('',(82.4,-106.,8.));
#741 = DIRECTION('',(1.,0.,0.));
#742 = DIRECTION('',(0.,1.,0.));
#743 = ORIENTED_EDGE('',*,*,#705,.F.);
#744 = ORIENTED_EDGE('',*,*,#199,.F.);
#745 = CYLINDRICAL_SURFACE('',#746,1.);
#746 = AXIS2_PLACEMENT_3D('',#747,#748,#749);
#747 = CARTESIAN_POINT('',(82.,-106.,8.));
#748 = DIRECTION('',(-1.,-0.,-0.));
#749 = DIRECTION('',(0.,1.,0.));
#750 = ADVANCED_FACE('',(#751),#769,.F.);
#751 = FACE_BOUND('',#752,.F.);
#752 = EDGE_LOOP('',(#753,#761,#767,#768));
#753 = ORIENTED_EDGE('',*,*,#754,.T.);
#754 = EDGE_CURVE('',#183,#755,#757,.T.);
#755 = VERTEX_POINT('',#756);
#756 = CARTESIAN_POINT('',(82.4,-112.,7.));
#757 = LINE('',#758,#759);
#758 = CARTESIAN_POINT('',(82.,-112.,7.));
#759 = VECTOR('',#760,1.);
#760 = DIRECTION('',(1.,0.,0.));
#761 = ORIENTED_EDGE('',*,*,#762,.T.);
#762 = EDGE_CURVE('',#755,#730,#763,.T.);
#763 = LINE('',#764,#765);
#764 = CARTESIAN_POINT('',(82.4,-112.,7.));
#765 = VECTOR('',#766,1.);
#766 = DIRECTION('',(0.,1.,0.));
#767 = ORIENTED_EDGE('',*,*,#729,.F.);
#768 = ORIENTED_EDGE('',*,*,#191,.F.);
#769 = PLANE('',#770);
#770 = AXIS2_PLACEMENT_3D('',#771,#772,#773);
#771 = CARTESIAN_POINT('',(82.,-112.,7.));
#772 = DIRECTION('',(0.,0.,1.));
#773 = DIRECTION('',(0.,1.,0.));
#774 = ADVANCED_FACE('',(#775),#794,.T.);
#775 = FACE_BOUND('',#776,.F.);
#776 = EDGE_LOOP('',(#777,#785,#792,#793));
#777 = ORIENTED_EDGE('',*,*,#778,.T.);
#778 = EDGE_CURVE('',#175,#779,#781,.T.);
#779 = VERTEX_POINT('',#780);
#780 = CARTESIAN_POINT('',(82.4,-113.,8.));
#781 = LINE('',#782,#783);
#782 = CARTESIAN_POINT('',(82.,-113.,8.));
#783 = VECTOR('',#784,1.);
#784 = DIRECTION('',(1.,0.,0.));
#785 = ORIENTED_EDGE('',*,*,#786,.T.);
#786 = EDGE_CURVE('',#779,#755,#787,.T.);
#787 = CIRCLE('',#788,1.);
#788 = AXIS2_PLACEMENT_3D('',#789,#790,#791);
#789 = CARTESIAN_POINT('',(82.4,-112.,8.));
#790 = DIRECTION('',(1.,0.,0.));
#791 = DIRECTION('',(0.,1.,0.));
#792 = ORIENTED_EDGE('',*,*,#754,.F.);
#793 = ORIENTED_EDGE('',*,*,#182,.F.);
#794 = CYLINDRICAL_SURFACE('',#795,1.);
#795 = AXIS2_PLACEMENT_3D('',#796,#797,#798);
#796 = CARTESIAN_POINT('',(82.,-112.,8.));
#797 = DIRECTION('',(-1.,-0.,-0.));
#798 = DIRECTION('',(0.,1.,0.));
#799 = ADVANCED_FACE('',(#800),#811,.F.);
#800 = FACE_BOUND('',#801,.F.);
#801 = EDGE_LOOP('',(#802,#803,#809,#810));
#802 = ORIENTED_EDGE('',*,*,#641,.T.);
#803 = ORIENTED_EDGE('',*,*,#804,.T.);
#804 = EDGE_CURVE('',#633,#779,#805,.T.);
#805 = LINE('',#806,#807);
#806 = CARTESIAN_POINT('',(82.4,-113.,14.));
#807 = VECTOR('',#808,1.);
#808 = DIRECTION('',(0.,0.,-1.));
#809 = ORIENTED_EDGE('',*,*,#778,.F.);
#810 = ORIENTED_EDGE('',*,*,#174,.F.);
#811 = PLANE('',#812);
#812 = AXIS2_PLACEMENT_3D('',#813,#814,#815);
#813 = CARTESIAN_POINT('',(82.,-113.,14.));
#814 = DIRECTION('',(0.,1.,0.));
#815 = DIRECTION('',(0.,0.,-1.));
#816 = ADVANCED_FACE('',(#817),#836,.F.);
#817 = FACE_BOUND('',#818,.F.);
#818 = EDGE_LOOP('',(#819,#827,#834,#835));
#819 = ORIENTED_EDGE('',*,*,#820,.F.);
#820 = EDGE_CURVE('',#821,#234,#823,.T.);
#821 = VERTEX_POINT('',#822);
#822 = CARTESIAN_POINT('',(79.,-92.,11.5));
#823 = LINE('',#824,#825);
#824 = CARTESIAN_POINT('',(79.,-92.,11.5));
#825 = VECTOR('',#826,1.);
#826 = DIRECTION('',(1.,-1.1E-16,1.1E-16));
#827 = ORIENTED_EDGE('',*,*,#828,.F.);
#828 = EDGE_CURVE('',#821,#821,#829,.T.);
#829 = CIRCLE('',#830,5.);
#830 = AXIS2_PLACEMENT_3D('',#831,#832,#833);
#831 = CARTESIAN_POINT('',(79.,-87.,11.5));
#832 = DIRECTION('',(-1.,0.,0.));
#833 = DIRECTION('',(0.,-1.,0.));
#834 = ORIENTED_EDGE('',*,*,#820,.T.);
#835 = ORIENTED_EDGE('',*,*,#233,.T.);
#836 = CYLINDRICAL_SURFACE('',#837,5.);
#837 = AXIS2_PLACEMENT_3D('',#838,#839,#840);
#838 = CARTESIAN_POINT('',(79.,-87.,11.5));
#839 = DIRECTION('',(-1.,4.4E-16,-2.2E-16));
#840 = DIRECTION('',(-4.4E-16,-1.,-2.2E-16));
#841 = ADVANCED_FACE('',(#842),#861,.F.);
#842 = FACE_BOUND('',#843,.F.);
#843 = EDGE_LOOP('',(#844,#852,#859,#860));
#844 = ORIENTED_EDGE('',*,*,#845,.F.);
#845 = EDGE_CURVE('',#846,#245,#848,.T.);
#846 = VERTEX_POINT('',#847);
#847 = CARTESIAN_POINT('',(79.,-77.5,11.5));
#848 = LINE('',#849,#850);
#849 = CARTESIAN_POINT('',(79.,-77.5,11.5));
#850 = VECTOR('',#851,1.);
#851 = DIRECTION('',(1.,-1.1E-16,1.1E-16));
#852 = ORIENTED_EDGE('',*,*,#853,.F.);
#853 = EDGE_CURVE('',#846,#846,#854,.T.);
#854 = CIRCLE('',#855,5.);
#855 = AXIS2_PLACEMENT_3D('',#856,#857,#858);
#856 = CARTESIAN_POINT('',(79.,-72.5,11.5));
#857 = DIRECTION('',(-1.,0.,0.));
#858 = DIRECTION('',(0.,-1.,0.));
#859 = ORIENTED_EDGE('',*,*,#845,.T.);
#860 = ORIENTED_EDGE('',*,*,#244,.T.);
#861 = CYLINDRICAL_SURFACE('',#862,5.);
#862 = AXIS2_PLACEMENT_3D('',#863,#864,#865);
#863 = CARTESIAN_POINT('',(79.,-72.5,11.5));
#864 = DIRECTION('',(-1.,4.4E-16,-2.2E-16));
#865 = DIRECTION('',(-4.4E-16,-1.,-2.2E-16));
#866 = ADVANCED_FACE('',(#867),#878,.F.);
#867 = FACE_BOUND('',#868,.F.);
#868 = EDGE_LOOP('',(#869,#870,#871,#877));
#869 = ORIENTED_EDGE('',*,*,#270,.T.);
#870 = ORIENTED_EDGE('',*,*,#327,.T.);
#871 = ORIENTED_EDGE('',*,*,#872,.F.);
#872 = EDGE_CURVE('',#296,#328,#873,.T.);
#873 = LINE('',#874,#875);
#874 = CARTESIAN_POINT('',(79.,-10.1,0.));
#875 = VECTOR('',#876,1.);
#876 = DIRECTION('',(0.,0.,1.));
#877 = ORIENTED_EDGE('',*,*,#295,.F.);
#878 = PLANE('',#879);
#879 = AXIS2_PLACEMENT_3D('',#880,#881,#882);
#880 = CARTESIAN_POINT('',(81.,-10.1,0.));
#881 = DIRECTION('',(0.,-1.,0.));
#882 = DIRECTION('',(-1.,0.,0.));
#883 = ADVANCED_FACE('',(#884,#899,#902,#905,#908),#914,.F.);
#884 = FACE_BOUND('',#885,.F.);
#885 = EDGE_LOOP('',(#886,#887,#888,#889,#895,#896,#897,#898));
#886 = ORIENTED_EDGE('',*,*,#303,.F.);
#887 = ORIENTED_EDGE('',*,*,#872,.T.);
#888 = ORIENTED_EDGE('',*,*,#335,.T.);
#889 = ORIENTED_EDGE('',*,*,#890,.F.);
#890 = EDGE_CURVE('',#384,#336,#891,.T.);
#891 = LINE('',#892,#893);
#892 = CARTESIAN_POINT('',(79.,-229.8999999999,0.));
#893 = VECTOR('',#894,1.);
#894 = DIRECTION('',(0.,0.,1.));
#895 = ORIENTED_EDGE('',*,*,#383,.F.);
#896 = ORIENTED_EDGE('',*,*,#438,.T.);
#897 = ORIENTED_EDGE('',*,*,#462,.T.);
#898 = ORIENTED_EDGE('',*,*,#486,.T.);
#899 = FACE_BOUND('',#900,.F.);
#900 = EDGE_LOOP('',(#901));
#901 = ORIENTED_EDGE('',*,*,#511,.T.);
#902 = FACE_BOUND('',#903,.F.);
#903 = EDGE_LOOP('',(#904));
#904 = ORIENTED_EDGE('',*,*,#853,.T.);
#905 = FACE_BOUND('',#906,.F.);
#906 = EDGE_LOOP('',(#907));
#907 = ORIENTED_EDGE('',*,*,#828,.T.);
#908 = FACE_BOUND('',#909,.F.);
#909 = EDGE_LOOP('',(#910,#911,#912,#913));
#910 = ORIENTED_EDGE('',*,*,#607,.T.);
#911 = ORIENTED_EDGE('',*,*,#583,.T.);
#912 = ORIENTED_EDGE('',*,*,#528,.T.);
#913 = ORIENTED_EDGE('',*,*,#559,.T.);
#914 = PLANE('',#915);
#915 = AXIS2_PLACEMENT_3D('',#916,#917,#918);
#916 = CARTESIAN_POINT('',(79.,-10.1,0.));
#917 = DIRECTION('',(1.,0.,0.));
#918 = DIRECTION('',(0.,-1.,0.));
#919 = ADVANCED_FACE('',(#920),#931,.F.);
#920 = FACE_BOUND('',#921,.F.);
#921 = EDGE_LOOP('',(#922,#923,#924,#930));
#922 = ORIENTED_EDGE('',*,*,#890,.T.);
#923 = ORIENTED_EDGE('',*,*,#343,.T.);
#924 = ORIENTED_EDGE('',*,*,#925,.F.);
#925 = EDGE_CURVE('',#392,#344,#926,.T.);
#926 = LINE('',#927,#928);
#927 = CARTESIAN_POINT('',(80.99999999994,-229.8999999999,0.));
#928 = VECTOR('',#929,1.);
#929 = DIRECTION('',(0.,0.,1.));
#930 = ORIENTED_EDGE('',*,*,#391,.F.);
#931 = PLANE('',#932);
#932 = AXIS2_PLACEMENT_3D('',#933,#934,#935);
#933 = CARTESIAN_POINT('',(79.,-229.8999999999,0.));
#934 = DIRECTION('',(0.,1.,0.));
#935 = DIRECTION('',(1.,0.,0.));
#936 = ADVANCED_FACE('',(#937),#943,.F.);
#937 = FACE_BOUND('',#938,.F.);
#938 = EDGE_LOOP('',(#939,#940,#941,#942));
#939 = ORIENTED_EDGE('',*,*,#925,.T.);
#940 = ORIENTED_EDGE('',*,*,#351,.T.);
#941 = ORIENTED_EDGE('',*,*,#421,.F.);
#942 = ORIENTED_EDGE('',*,*,#399,.F.);
#943 = PLANE('',#944);
#944 = AXIS2_PLACEMENT_3D('',#945,#946,#947);
#945 = CARTESIAN_POINT('',(80.99999999994,-229.8999999999,0.));
#946 = DIRECTION('',(-1.,0.,0.));
#947 = DIRECTION('',(0.,1.,0.));
#948 = ADVANCED_FACE('',(#949,#959),#1029,.T.);
#949 = FACE_BOUND('',#950,.T.);
#950 = EDGE_LOOP('',(#951,#952,#953,#954,#955,#956,#957,#958));
#951 = ORIENTED_EDGE('',*,*,#804,.T.);
#952 = ORIENTED_EDGE('',*,*,#786,.T.);
#953 = ORIENTED_EDGE('',*,*,#762,.T.);
#954 = ORIENTED_EDGE('',*,*,#737,.T.);
#955 = ORIENTED_EDGE('',*,*,#713,.T.);
#956 = ORIENTED_EDGE('',*,*,#688,.T.);
#957 = ORIENTED_EDGE('',*,*,#664,.T.);
#958 = ORIENTED_EDGE('',*,*,#632,.T.);
#959 = FACE_BOUND('',#960,.F.);
#960 = EDGE_LOOP('',(#961,#971,#980,#988,#997,#1005,#1014,#1022));
#961 = ORIENTED_EDGE('',*,*,#962,.T.);
#962 = EDGE_CURVE('',#963,#965,#967,.T.);
#963 = VERTEX_POINT('',#964);
#964 = CARTESIAN_POINT('',(82.4,-112.5,13.7));
#965 = VERTEX_POINT('',#966);
#966 = CARTESIAN_POINT('',(82.4,-112.5,8.3));
#967 = LINE('',#968,#969);
#968 = CARTESIAN_POINT('',(82.4,-112.5,13.7));
#969 = VECTOR('',#970,1.);
#970 = DIRECTION('',(0.,0.,-1.));
#971 = ORIENTED_EDGE('',*,*,#972,.T.);
#972 = EDGE_CURVE('',#965,#973,#975,.T.);
#973 = VERTEX_POINT('',#974);
#974 = CARTESIAN_POINT('',(82.4,-111.7,7.5));
#975 = CIRCLE('',#976,0.8);
#976 = AXIS2_PLACEMENT_3D('',#977,#978,#979);
#977 = CARTESIAN_POINT('',(82.4,-111.7,8.3));
#978 = DIRECTION('',(1.,0.,0.));
#979 = DIRECTION('',(0.,1.,0.));
#980 = ORIENTED_EDGE('',*,*,#981,.T.);
#981 = EDGE_CURVE('',#973,#982,#984,.T.);
#982 = VERTEX_POINT('',#983);
#983 = CARTESIAN_POINT('',(82.4,-106.3,7.5));
#984 = LINE('',#985,#986);
#985 = CARTESIAN_POINT('',(82.4,-111.7,7.5));
#986 = VECTOR('',#987,1.);
#987 = DIRECTION('',(0.,1.,0.));
#988 = ORIENTED_EDGE('',*,*,#989,.T.);
#989 = EDGE_CURVE('',#982,#990,#992,.T.);
#990 = VERTEX_POINT('',#991);
#991 = CARTESIAN_POINT('',(82.4,-105.5,8.3));
#992 = CIRCLE('',#993,0.8);
#993 = AXIS2_PLACEMENT_3D('',#994,#995,#996);
#994 = CARTESIAN_POINT('',(82.4,-106.3,8.3));
#995 = DIRECTION('',(1.,0.,0.));
#996 = DIRECTION('',(0.,1.,0.));
#997 = ORIENTED_EDGE('',*,*,#998,.T.);
#998 = EDGE_CURVE('',#990,#999,#1001,.T.);
#999 = VERTEX_POINT('',#1000);
#1000 = CARTESIAN_POINT('',(82.4,-105.5,13.7));
#1001 = LINE('',#1002,#1003);
#1002 = CARTESIAN_POINT('',(82.4,-105.5,8.3));
#1003 = VECTOR('',#1004,1.);
#1004 = DIRECTION('',(0.,0.,1.));
#1005 = ORIENTED_EDGE('',*,*,#1006,.T.);
#1006 = EDGE_CURVE('',#999,#1007,#1009,.T.);
#1007 = VERTEX_POINT('',#1008);
#1008 = CARTESIAN_POINT('',(82.4,-106.3,14.5));
#1009 = CIRCLE('',#1010,0.8);
#1010 = AXIS2_PLACEMENT_3D('',#1011,#1012,#1013);
#1011 = CARTESIAN_POINT('',(82.4,-106.3,13.7));
#1012 = DIRECTION('',(1.,0.,0.));
#1013 = DIRECTION('',(0.,1.,0.));
#1014 = ORIENTED_EDGE('',*,*,#1015,.T.);
#1015 = EDGE_CURVE('',#1007,#1016,#1018,.T.);
#1016 = VERTEX_POINT('',#1017);
#1017 = CARTESIAN_POINT('',(82.4,-111.7,14.5));
#1018 = LINE('',#1019,#1020);
#1019 = CARTESIAN_POINT('',(82.4,-106.3,14.5));
#1020 = VECTOR('',#1021,1.);
#1021 = DIRECTION('',(0.,-1.,0.));
#1022 = ORIENTED_EDGE('',*,*,#1023,.T.);
#1023 = EDGE_CURVE('',#1016,#963,#1024,.T.);
#1024 = CIRCLE('',#1025,0.8);
#1025 = AXIS2_PLACEMENT_3D('',#1026,#1027,#1028);
#1026 = CARTESIAN_POINT('',(82.4,-111.7,13.7));
#1027 = DIRECTION('',(1.,0.,0.));
#1028 = DIRECTION('',(0.,1.,0.));
#1029 = PLANE('',#1030);
#1030 = AXIS2_PLACEMENT_3D('',#1031,#1032,#1033);
#1031 = CARTESIAN_POINT('',(82.4,-109.1077614979,11.));
#1032 = DIRECTION('',(1.,0.,0.));
#1033 = DIRECTION('',(0.,0.,1.));
#1034 = ADVANCED_FACE('',(#1035),#1060,.T.);
#1035 = FACE_BOUND('',#1036,.T.);
#1036 = EDGE_LOOP('',(#1037,#1045,#1046,#1054));
#1037 = ORIENTED_EDGE('',*,*,#1038,.T.);
#1038 = EDGE_CURVE('',#1039,#963,#1041,.T.);
#1039 = VERTEX_POINT('',#1040);
#1040 = CARTESIAN_POINT('',(82.,-112.5,13.7));
#1041 = LINE('',#1042,#1043);
#1042 = CARTESIAN_POINT('',(82.,-112.5,13.7));
#1043 = VECTOR('',#1044,1.);
#1044 = DIRECTION('',(1.,0.,0.));
#1045 = ORIENTED_EDGE('',*,*,#962,.T.);
#1046 = ORIENTED_EDGE('',*,*,#1047,.F.);
#1047 = EDGE_CURVE('',#1048,#965,#1050,.T.);
#1048 = VERTEX_POINT('',#1049);
#1049 = CARTESIAN_POINT('',(82.,-112.5,8.3));
#1050 = LINE('',#1051,#1052);
#1051 = CARTESIAN_POINT('',(82.,-112.5,8.3));
#1052 = VECTOR('',#1053,1.);
#1053 = DIRECTION('',(1.,0.,0.));
#1054 = ORIENTED_EDGE('',*,*,#1055,.F.);
#1055 = EDGE_CURVE('',#1039,#1048,#1056,.T.);
#1056 = LINE('',#1057,#1058);
#1057 = CARTESIAN_POINT('',(82.,-112.5,13.7));
#1058 = VECTOR('',#1059,1.);
#1059 = DIRECTION('',(0.,0.,-1.));
#1060 = PLANE('',#1061);
#1061 = AXIS2_PLACEMENT_3D('',#1062,#1063,#1064);
#1062 = CARTESIAN_POINT('',(82.,-112.5,13.7));
#1063 = DIRECTION('',(0.,1.,0.));
#1064 = DIRECTION('',(0.,0.,-1.));
#1065 = ADVANCED_FACE('',(#1066),#1085,.F.);
#1066 = FACE_BOUND('',#1067,.T.);
#1067 = EDGE_LOOP('',(#1068,#1069,#1070,#1078));
#1068 = ORIENTED_EDGE('',*,*,#1047,.T.);
#1069 = ORIENTED_EDGE('',*,*,#972,.T.);
#1070 = ORIENTED_EDGE('',*,*,#1071,.F.);
#1071 = EDGE_CURVE('',#1072,#973,#1074,.T.);
#1072 = VERTEX_POINT('',#1073);
#1073 = CARTESIAN_POINT('',(82.,-111.7,7.5));
#1074 = LINE('',#1075,#1076);
#1075 = CARTESIAN_POINT('',(82.,-111.7,7.5));
#1076 = VECTOR('',#1077,1.);
#1077 = DIRECTION('',(1.,0.,0.));
#1078 = ORIENTED_EDGE('',*,*,#1079,.F.);
#1079 = EDGE_CURVE('',#1048,#1072,#1080,.T.);
#1080 = CIRCLE('',#1081,0.8);
#1081 = AXIS2_PLACEMENT_3D('',#1082,#1083,#1084);
#1082 = CARTESIAN_POINT('',(82.,-111.7,8.3));
#1083 = DIRECTION('',(1.,0.,0.));
#1084 = DIRECTION('',(0.,1.,0.));
#1085 = CYLINDRICAL_SURFACE('',#1086,0.8);
#1086 = AXIS2_PLACEMENT_3D('',#1087,#1088,#1089);
#1087 = CARTESIAN_POINT('',(82.,-111.7,8.3));
#1088 = DIRECTION('',(-1.,-0.,-0.));
#1089 = DIRECTION('',(0.,1.,0.));
#1090 = ADVANCED_FACE('',(#1091),#1109,.T.);
#1091 = FACE_BOUND('',#1092,.T.);
#1092 = EDGE_LOOP('',(#1093,#1094,#1095,#1103));
#1093 = ORIENTED_EDGE('',*,*,#1071,.T.);
#1094 = ORIENTED_EDGE('',*,*,#981,.T.);
#1095 = ORIENTED_EDGE('',*,*,#1096,.F.);
#1096 = EDGE_CURVE('',#1097,#982,#1099,.T.);
#1097 = VERTEX_POINT('',#1098);
#1098 = CARTESIAN_POINT('',(82.,-106.3,7.5));
#1099 = LINE('',#1100,#1101);
#1100 = CARTESIAN_POINT('',(82.,-106.3,7.5));
#1101 = VECTOR('',#1102,1.);
#1102 = DIRECTION('',(1.,0.,0.));
#1103 = ORIENTED_EDGE('',*,*,#1104,.F.);
#1104 = EDGE_CURVE('',#1072,#1097,#1105,.T.);
#1105 = LINE('',#1106,#1107);
#1106 = CARTESIAN_POINT('',(82.,-111.7,7.5));
#1107 = VECTOR('',#1108,1.);
#1108 = DIRECTION('',(0.,1.,0.));
#1109 = PLANE('',#1110);
#1110 = AXIS2_PLACEMENT_3D('',#1111,#1112,#1113);
#1111 = CARTESIAN_POINT('',(82.,-111.7,7.5));
#1112 = DIRECTION('',(0.,0.,1.));
#1113 = DIRECTION('',(0.,1.,0.));
#1114 = ADVANCED_FACE('',(#1115),#1134,.F.);
#1115 = FACE_BOUND('',#1116,.T.);
#1116 = EDGE_LOOP('',(#1117,#1118,#1119,#1127));
#1117 = ORIENTED_EDGE('',*,*,#1096,.T.);
#1118 = ORIENTED_EDGE('',*,*,#989,.T.);
#1119 = ORIENTED_EDGE('',*,*,#1120,.F.);
#1120 = EDGE_CURVE('',#1121,#990,#1123,.T.);
#1121 = VERTEX_POINT('',#1122);
#1122 = CARTESIAN_POINT('',(82.,-105.5,8.3));
#1123 = LINE('',#1124,#1125);
#1124 = CARTESIAN_POINT('',(82.,-105.5,8.3));
#1125 = VECTOR('',#1126,1.);
#1126 = DIRECTION('',(1.,0.,0.));
#1127 = ORIENTED_EDGE('',*,*,#1128,.F.);
#1128 = EDGE_CURVE('',#1097,#1121,#1129,.T.);
#1129 = CIRCLE('',#1130,0.8);
#1130 = AXIS2_PLACEMENT_3D('',#1131,#1132,#1133);
#1131 = CARTESIAN_POINT('',(82.,-106.3,8.3));
#1132 = DIRECTION('',(1.,0.,0.));
#1133 = DIRECTION('',(0.,1.,0.));
#1134 = CYLINDRICAL_SURFACE('',#1135,0.8);
#1135 = AXIS2_PLACEMENT_3D('',#1136,#1137,#1138);
#1136 = CARTESIAN_POINT('',(82.,-106.3,8.3));
#1137 = DIRECTION('',(-1.,-0.,-0.));
#1138 = DIRECTION('',(0.,1.,0.));
#1139 = ADVANCED_FACE('',(#1140),#1158,.T.);
#1140 = FACE_BOUND('',#1141,.T.);
#1141 = EDGE_LOOP('',(#1142,#1143,#1144,#1152));
#1142 = ORIENTED_EDGE('',*,*,#1120,.T.);
#1143 = ORIENTED_EDGE('',*,*,#998,.T.);
#1144 = ORIENTED_EDGE('',*,*,#1145,.F.);
#1145 = EDGE_CURVE('',#1146,#999,#1148,.T.);
#1146 = VERTEX_POINT('',#1147);
#1147 = CARTESIAN_POINT('',(82.,-105.5,13.7));
#1148 = LINE('',#1149,#1150);
#1149 = CARTESIAN_POINT('',(82.,-105.5,13.7));
#1150 = VECTOR('',#1151,1.);
#1151 = DIRECTION('',(1.,0.,0.));
#1152 = ORIENTED_EDGE('',*,*,#1153,.F.);
#1153 = EDGE_CURVE('',#1121,#1146,#1154,.T.);
#1154 = LINE('',#1155,#1156);
#1155 = CARTESIAN_POINT('',(82.,-105.5,8.3));
#1156 = VECTOR('',#1157,1.);
#1157 = DIRECTION('',(0.,0.,1.));
#1158 = PLANE('',#1159);
#1159 = AXIS2_PLACEMENT_3D('',#1160,#1161,#1162);
#1160 = CARTESIAN_POINT('',(82.,-105.5,8.3));
#1161 = DIRECTION('',(0.,-1.,0.));
#1162 = DIRECTION('',(0.,0.,1.));
#1163 = ADVANCED_FACE('',(#1164),#1183,.F.);
#1164 = FACE_BOUND('',#1165,.T.);
#1165 = EDGE_LOOP('',(#1166,#1167,#1168,#1176));
#1166 = ORIENTED_EDGE('',*,*,#1145,.T.);
#1167 = ORIENTED_EDGE('',*,*,#1006,.T.);
#1168 = ORIENTED_EDGE('',*,*,#1169,.F.);
#1169 = EDGE_CURVE('',#1170,#1007,#1172,.T.);
#1170 = VERTEX_POINT('',#1171);
#1171 = CARTESIAN_POINT('',(82.,-106.3,14.5));
#1172 = LINE('',#1173,#1174);
#1173 = CARTESIAN_POINT('',(82.,-106.3,14.5));
#1174 = VECTOR('',#1175,1.);
#1175 = DIRECTION('',(1.,0.,0.));
#1176 = ORIENTED_EDGE('',*,*,#1177,.F.);
#1177 = EDGE_CURVE('',#1146,#1170,#1178,.T.);
#1178 = CIRCLE('',#1179,0.8);
#1179 = AXIS2_PLACEMENT_3D('',#1180,#1181,#1182);
#1180 = CARTESIAN_POINT('',(82.,-106.3,13.7));
#1181 = DIRECTION('',(1.,0.,0.));
#1182 = DIRECTION('',(0.,1.,0.));
#1183 = CYLINDRICAL_SURFACE('',#1184,0.8);
#1184 = AXIS2_PLACEMENT_3D('',#1185,#1186,#1187);
#1185 = CARTESIAN_POINT('',(82.,-106.3,13.7));
#1186 = DIRECTION('',(-1.,-0.,-0.));
#1187 = DIRECTION('',(0.,1.,0.));
#1188 = ADVANCED_FACE('',(#1189),#1207,.T.);
#1189 = FACE_BOUND('',#1190,.T.);
#1190 = EDGE_LOOP('',(#1191,#1192,#1193,#1201));
#1191 = ORIENTED_EDGE('',*,*,#1169,.T.);
#1192 = ORIENTED_EDGE('',*,*,#1015,.T.);
#1193 = ORIENTED_EDGE('',*,*,#1194,.F.);
#1194 = EDGE_CURVE('',#1195,#1016,#1197,.T.);
#1195 = VERTEX_POINT('',#1196);
#1196 = CARTESIAN_POINT('',(82.,-111.7,14.5));
#1197 = LINE('',#1198,#1199);
#1198 = CARTESIAN_POINT('',(82.,-111.7,14.5));
#1199 = VECTOR('',#1200,1.);
#1200 = DIRECTION('',(1.,0.,0.));
#1201 = ORIENTED_EDGE('',*,*,#1202,.F.);
#1202 = EDGE_CURVE('',#1170,#1195,#1203,.T.);
#1203 = LINE('',#1204,#1205);
#1204 = CARTESIAN_POINT('',(82.,-106.3,14.5));
#1205 = VECTOR('',#1206,1.);
#1206 = DIRECTION('',(0.,-1.,0.));
#1207 = PLANE('',#1208);
#1208 = AXIS2_PLACEMENT_3D('',#1209,#1210,#1211);
#1209 = CARTESIAN_POINT('',(82.,-106.3,14.5));
#1210 = DIRECTION('',(0.,0.,-1.));
#1211 = DIRECTION('',(0.,-1.,0.));
#1212 = ADVANCED_FACE('',(#1213),#1225,.F.);
#1213 = FACE_BOUND('',#1214,.T.);
#1214 = EDGE_LOOP('',(#1215,#1216,#1217,#1218));
#1215 = ORIENTED_EDGE('',*,*,#1194,.T.);
#1216 = ORIENTED_EDGE('',*,*,#1023,.T.);
#1217 = ORIENTED_EDGE('',*,*,#1038,.F.);
#1218 = ORIENTED_EDGE('',*,*,#1219,.F.);
#1219 = EDGE_CURVE('',#1195,#1039,#1220,.T.);
#1220 = CIRCLE('',#1221,0.8);
#1221 = AXIS2_PLACEMENT_3D('',#1222,#1223,#1224);
#1222 = CARTESIAN_POINT('',(82.,-111.7,13.7));
#1223 = DIRECTION('',(1.,0.,0.));
#1224 = DIRECTION('',(0.,1.,0.));
#1225 = CYLINDRICAL_SURFACE('',#1226,0.8);
#1226 = AXIS2_PLACEMENT_3D('',#1227,#1228,#1229);
#1227 = CARTESIAN_POINT('',(82.,-111.7,13.7));
#1228 = DIRECTION('',(-1.,-0.,-0.));
#1229 = DIRECTION('',(0.,1.,0.));
#1230 = ADVANCED_FACE('',(#1231,#1241),#1363,.F.);
#1231 = FACE_BOUND('',#1232,.F.);
#1232 = EDGE_LOOP('',(#1233,#1234,#1235,#1236,#1237,#1238,#1239,#1240));
#1233 = ORIENTED_EDGE('',*,*,#1055,.F.);
#1234 = ORIENTED_EDGE('',*,*,#1219,.F.);
#1235 = ORIENTED_EDGE('',*,*,#1202,.F.);
#1236 = ORIENTED_EDGE('',*,*,#1177,.F.);
#1237 = ORIENTED_EDGE('',*,*,#1153,.F.);
#1238 = ORIENTED_EDGE('',*,*,#1128,.F.);
#1239 = ORIENTED_EDGE('',*,*,#1104,.F.);
#1240 = ORIENTED_EDGE('',*,*,#1079,.F.);
#1241 = FACE_BOUND('',#1242,.F.);
#1242 = EDGE_LOOP('',(#1243,#1253,#1262,#1270,#1279,#1287,#1296,#1305,
    #1313,#1322,#1330,#1339,#1347,#1356));
#1243 = ORIENTED_EDGE('',*,*,#1244,.T.);
#1244 = EDGE_CURVE('',#1245,#1247,#1249,.T.);
#1245 = VERTEX_POINT('',#1246);
#1246 = CARTESIAN_POINT('',(82.,-107.9367496997,13.35));
#1247 = VERTEX_POINT('',#1248);
#1248 = CARTESIAN_POINT('',(82.,-110.0632503002,13.35));
#1249 = LINE('',#1250,#1251);
#1250 = CARTESIAN_POINT('',(82.,-107.9367496997,13.35));
#1251 = VECTOR('',#1252,1.);
#1252 = DIRECTION('',(0.,-1.,0.));
#1253 = ORIENTED_EDGE('',*,*,#1254,.T.);
#1254 = EDGE_CURVE('',#1247,#1255,#1257,.T.);
#1255 = VERTEX_POINT('',#1256);
#1256 = CARTESIAN_POINT('',(82.,-111.35,12.06325030024));
#1257 = CIRCLE('',#1258,1.);
#1258 = AXIS2_PLACEMENT_3D('',#1259,#1260,#1261);
#1259 = CARTESIAN_POINT('',(82.,-111.,13.));
#1260 = DIRECTION('',(1.,0.,0.));
#1261 = DIRECTION('',(0.,1.,0.));
#1262 = ORIENTED_EDGE('',*,*,#1263,.T.);
#1263 = EDGE_CURVE('',#1255,#1264,#1266,.T.);
#1264 = VERTEX_POINT('',#1265);
#1265 = CARTESIAN_POINT('',(82.,-111.35,9.93674969976));
#1266 = LINE('',#1267,#1268);
#1267 = CARTESIAN_POINT('',(82.,-111.35,12.06325030024));
#1268 = VECTOR('',#1269,1.);
#1269 = DIRECTION('',(0.,0.,-1.));
#1270 = ORIENTED_EDGE('',*,*,#1271,.T.);
#1271 = EDGE_CURVE('',#1264,#1272,#1274,.T.);
#1272 = VERTEX_POINT('',#1273);
#1273 = CARTESIAN_POINT('',(82.,-110.0632503002,8.65));
#1274 = CIRCLE('',#1275,1.);
#1275 = AXIS2_PLACEMENT_3D('',#1276,#1277,#1278);
#1276 = CARTESIAN_POINT('',(82.,-111.,9.));
#1277 = DIRECTION('',(1.,0.,0.));
#1278 = DIRECTION('',(0.,1.,0.));
#1279 = ORIENTED_EDGE('',*,*,#1280,.T.);
#1280 = EDGE_CURVE('',#1272,#1281,#1283,.T.);
#1281 = VERTEX_POINT('',#1282);
#1282 = CARTESIAN_POINT('',(82.,-107.9367496997,8.65));
#1283 = LINE('',#1284,#1285);
#1284 = CARTESIAN_POINT('',(82.,-110.0632503002,8.65));
#1285 = VECTOR('',#1286,1.);
#1286 = DIRECTION('',(0.,1.,0.));
#1287 = ORIENTED_EDGE('',*,*,#1288,.T.);
#1288 = EDGE_CURVE('',#1281,#1289,#1291,.T.);
#1289 = VERTEX_POINT('',#1290);
#1290 = CARTESIAN_POINT('',(82.,-106.,9.));
#1291 = CIRCLE('',#1292,1.);
#1292 = AXIS2_PLACEMENT_3D('',#1293,#1294,#1295);
#1293 = CARTESIAN_POINT('',(82.,-107.,9.));
#1294 = DIRECTION('',(1.,0.,0.));
#1295 = DIRECTION('',(0.,1.,0.));
#1296 = ORIENTED_EDGE('',*,*,#1297,.T.);
#1297 = EDGE_CURVE('',#1289,#1298,#1300,.T.);
#1298 = VERTEX_POINT('',#1299);
#1299 = CARTESIAN_POINT('',(82.,-107.9367496997,9.35));
#1300 = CIRCLE('',#1301,1.);
#1301 = AXIS2_PLACEMENT_3D('',#1302,#1303,#1304);
#1302 = CARTESIAN_POINT('',(82.,-107.,9.));
#1303 = DIRECTION('',(1.,0.,0.));
#1304 = DIRECTION('',(0.,1.,0.));
#1305 = ORIENTED_EDGE('',*,*,#1306,.T.);
#1306 = EDGE_CURVE('',#1298,#1307,#1309,.T.);
#1307 = VERTEX_POINT('',#1308);
#1308 = CARTESIAN_POINT('',(82.,-110.0632503002,9.35));
#1309 = LINE('',#1310,#1311);
#1310 = CARTESIAN_POINT('',(82.,-107.9367496997,9.35));
#1311 = VECTOR('',#1312,1.);
#1312 = DIRECTION('',(0.,-1.,0.));
#1313 = ORIENTED_EDGE('',*,*,#1314,.T.);
#1314 = EDGE_CURVE('',#1307,#1315,#1317,.T.);
#1315 = VERTEX_POINT('',#1316);
#1316 = CARTESIAN_POINT('',(82.,-110.65,9.93674969976));
#1317 = CIRCLE('',#1318,1.);
#1318 = AXIS2_PLACEMENT_3D('',#1319,#1320,#1321);
#1319 = CARTESIAN_POINT('',(82.,-111.,9.));
#1320 = DIRECTION('',(1.,0.,0.));
#1321 = DIRECTION('',(0.,1.,0.));
#1322 = ORIENTED_EDGE('',*,*,#1323,.T.);
#1323 = EDGE_CURVE('',#1315,#1324,#1326,.T.);
#1324 = VERTEX_POINT('',#1325);
#1325 = CARTESIAN_POINT('',(82.,-110.65,12.06325030024));
#1326 = LINE('',#1327,#1328);
#1327 = CARTESIAN_POINT('',(82.,-110.65,9.93674969976));
#1328 = VECTOR('',#1329,1.);
#1329 = DIRECTION('',(0.,0.,1.));
#1330 = ORIENTED_EDGE('',*,*,#1331,.T.);
#1331 = EDGE_CURVE('',#1324,#1332,#1334,.T.);
#1332 = VERTEX_POINT('',#1333);
#1333 = CARTESIAN_POINT('',(82.,-110.0632503002,12.65));
#1334 = CIRCLE('',#1335,1.);
#1335 = AXIS2_PLACEMENT_3D('',#1336,#1337,#1338);
#1336 = CARTESIAN_POINT('',(82.,-111.,13.));
#1337 = DIRECTION('',(1.,0.,0.));
#1338 = DIRECTION('',(0.,1.,0.));
#1339 = ORIENTED_EDGE('',*,*,#1340,.T.);
#1340 = EDGE_CURVE('',#1332,#1341,#1343,.T.);
#1341 = VERTEX_POINT('',#1342);
#1342 = CARTESIAN_POINT('',(82.,-107.9367496997,12.65));
#1343 = LINE('',#1344,#1345);
#1344 = CARTESIAN_POINT('',(82.,-110.0632503002,12.65));
#1345 = VECTOR('',#1346,1.);
#1346 = DIRECTION('',(0.,1.,0.));
#1347 = ORIENTED_EDGE('',*,*,#1348,.T.);
#1348 = EDGE_CURVE('',#1341,#1349,#1351,.T.);
#1349 = VERTEX_POINT('',#1350);
#1350 = CARTESIAN_POINT('',(82.,-106.,13.));
#1351 = CIRCLE('',#1352,1.);
#1352 = AXIS2_PLACEMENT_3D('',#1353,#1354,#1355);
#1353 = CARTESIAN_POINT('',(82.,-107.,13.));
#1354 = DIRECTION('',(1.,0.,0.));
#1355 = DIRECTION('',(0.,1.,0.));
#1356 = ORIENTED_EDGE('',*,*,#1357,.T.);
#1357 = EDGE_CURVE('',#1349,#1245,#1358,.T.);
#1358 = CIRCLE('',#1359,1.);
#1359 = AXIS2_PLACEMENT_3D('',#1360,#1361,#1362);
#1360 = CARTESIAN_POINT('',(82.,-107.,13.));
#1361 = DIRECTION('',(1.,0.,0.));
#1362 = DIRECTION('',(0.,1.,0.));
#1363 = PLANE('',#1364);
#1364 = AXIS2_PLACEMENT_3D('',#1365,#1366,#1367);
#1365 = CARTESIAN_POINT('',(82.,-224.8,0.));
#1366 = DIRECTION('',(-1.,0.,0.));
#1367 = DIRECTION('',(0.,1.,0.));
#1368 = ADVANCED_FACE('',(#1369),#1394,.F.);
#1369 = FACE_BOUND('',#1370,.F.);
#1370 = EDGE_LOOP('',(#1371,#1379,#1387,#1393));
#1371 = ORIENTED_EDGE('',*,*,#1372,.T.);
#1372 = EDGE_CURVE('',#1245,#1373,#1375,.T.);
#1373 = VERTEX_POINT('',#1374);
#1374 = CARTESIAN_POINT('',(82.4,-107.9367496997,13.35));
#1375 = LINE('',#1376,#1377);
#1376 = CARTESIAN_POINT('',(82.,-107.9367496997,13.35));
#1377 = VECTOR('',#1378,1.);
#1378 = DIRECTION('',(1.,0.,0.));
#1379 = ORIENTED_EDGE('',*,*,#1380,.T.);
#1380 = EDGE_CURVE('',#1373,#1381,#1383,.T.);
#1381 = VERTEX_POINT('',#1382);
#1382 = CARTESIAN_POINT('',(82.4,-110.0632503002,13.35));
#1383 = LINE('',#1384,#1385);
#1384 = CARTESIAN_POINT('',(82.4,-107.9367496997,13.35));
#1385 = VECTOR('',#1386,1.);
#1386 = DIRECTION('',(0.,-1.,0.));
#1387 = ORIENTED_EDGE('',*,*,#1388,.F.);
#1388 = EDGE_CURVE('',#1247,#1381,#1389,.T.);
#1389 = LINE('',#1390,#1391);
#1390 = CARTESIAN_POINT('',(82.,-110.0632503002,13.35));
#1391 = VECTOR('',#1392,1.);
#1392 = DIRECTION('',(1.,0.,0.));
#1393 = ORIENTED_EDGE('',*,*,#1244,.F.);
#1394 = PLANE('',#1395);
#1395 = AXIS2_PLACEMENT_3D('',#1396,#1397,#1398);
#1396 = CARTESIAN_POINT('',(82.,-107.9367496997,13.35));
#1397 = DIRECTION('',(0.,0.,-1.));
#1398 = DIRECTION('',(0.,-1.,0.));
#1399 = ADVANCED_FACE('',(#1400),#1425,.F.);
#1400 = FACE_BOUND('',#1401,.F.);
#1401 = EDGE_LOOP('',(#1402,#1410,#1418,#1424));
#1402 = ORIENTED_EDGE('',*,*,#1403,.T.);
#1403 = EDGE_CURVE('',#1332,#1404,#1406,.T.);
#1404 = VERTEX_POINT('',#1405);
#1405 = CARTESIAN_POINT('',(82.4,-110.0632503002,12.65));
#1406 = LINE('',#1407,#1408);
#1407 = CARTESIAN_POINT('',(82.,-110.0632503002,12.65));
#1408 = VECTOR('',#1409,1.);
#1409 = DIRECTION('',(1.,0.,0.));
#1410 = ORIENTED_EDGE('',*,*,#1411,.T.);
#1411 = EDGE_CURVE('',#1404,#1412,#1414,.T.);
#1412 = VERTEX_POINT('',#1413);
#1413 = CARTESIAN_POINT('',(82.4,-107.9367496997,12.65));
#1414 = LINE('',#1415,#1416);
#1415 = CARTESIAN_POINT('',(82.4,-110.0632503002,12.65));
#1416 = VECTOR('',#1417,1.);
#1417 = DIRECTION('',(0.,1.,0.));
#1418 = ORIENTED_EDGE('',*,*,#1419,.F.);
#1419 = EDGE_CURVE('',#1341,#1412,#1420,.T.);
#1420 = LINE('',#1421,#1422);
#1421 = CARTESIAN_POINT('',(82.,-107.9367496997,12.65));
#1422 = VECTOR('',#1423,1.);
#1423 = DIRECTION('',(1.,0.,0.));
#1424 = ORIENTED_EDGE('',*,*,#1340,.F.);
#1425 = PLANE('',#1426);
#1426 = AXIS2_PLACEMENT_3D('',#1427,#1428,#1429);
#1427 = CARTESIAN_POINT('',(82.,-110.0632503002,12.65));
#1428 = DIRECTION('',(0.,0.,1.));
#1429 = DIRECTION('',(0.,1.,0.));
#1430 = ADVANCED_FACE('',(#1431),#1450,.T.);
#1431 = FACE_BOUND('',#1432,.F.);
#1432 = EDGE_LOOP('',(#1433,#1434,#1435,#1443));
#1433 = ORIENTED_EDGE('',*,*,#1403,.F.);
#1434 = ORIENTED_EDGE('',*,*,#1331,.F.);
#1435 = ORIENTED_EDGE('',*,*,#1436,.T.);
#1436 = EDGE_CURVE('',#1324,#1437,#1439,.T.);
#1437 = VERTEX_POINT('',#1438);
#1438 = CARTESIAN_POINT('',(82.4,-110.65,12.06325030024));
#1439 = LINE('',#1440,#1441);
#1440 = CARTESIAN_POINT('',(82.,-110.65,12.06325030024));
#1441 = VECTOR('',#1442,1.);
#1442 = DIRECTION('',(1.,0.,0.));
#1443 = ORIENTED_EDGE('',*,*,#1444,.T.);
#1444 = EDGE_CURVE('',#1437,#1404,#1445,.T.);
#1445 = CIRCLE('',#1446,1.);
#1446 = AXIS2_PLACEMENT_3D('',#1447,#1448,#1449);
#1447 = CARTESIAN_POINT('',(82.4,-111.,13.));
#1448 = DIRECTION('',(1.,0.,0.));
#1449 = DIRECTION('',(0.,1.,0.));
#1450 = CYLINDRICAL_SURFACE('',#1451,1.);
#1451 = AXIS2_PLACEMENT_3D('',#1452,#1453,#1454);
#1452 = CARTESIAN_POINT('',(82.,-111.,13.));
#1453 = DIRECTION('',(-1.,-0.,-0.));
#1454 = DIRECTION('',(0.,1.,0.));
#1455 = ADVANCED_FACE('',(#1456),#1474,.F.);
#1456 = FACE_BOUND('',#1457,.F.);
#1457 = EDGE_LOOP('',(#1458,#1466,#1472,#1473));
#1458 = ORIENTED_EDGE('',*,*,#1459,.T.);
#1459 = EDGE_CURVE('',#1315,#1460,#1462,.T.);
#1460 = VERTEX_POINT('',#1461);
#1461 = CARTESIAN_POINT('',(82.4,-110.65,9.93674969976));
#1462 = LINE('',#1463,#1464);
#1463 = CARTESIAN_POINT('',(82.,-110.65,9.93674969976));
#1464 = VECTOR('',#1465,1.);
#1465 = DIRECTION('',(1.,0.,0.));
#1466 = ORIENTED_EDGE('',*,*,#1467,.T.);
#1467 = EDGE_CURVE('',#1460,#1437,#1468,.T.);
#1468 = LINE('',#1469,#1470);
#1469 = CARTESIAN_POINT('',(82.4,-110.65,9.93674969976));
#1470 = VECTOR('',#1471,1.);
#1471 = DIRECTION('',(0.,0.,1.));
#1472 = ORIENTED_EDGE('',*,*,#1436,.F.);
#1473 = ORIENTED_EDGE('',*,*,#1323,.F.);
#1474 = PLANE('',#1475);
#1475 = AXIS2_PLACEMENT_3D('',#1476,#1477,#1478);
#1476 = CARTESIAN_POINT('',(82.,-110.65,9.93674969976));
#1477 = DIRECTION('',(0.,-1.,0.));
#1478 = DIRECTION('',(0.,0.,1.));
#1479 = ADVANCED_FACE('',(#1480),#1499,.T.);
#1480 = FACE_BOUND('',#1481,.F.);
#1481 = EDGE_LOOP('',(#1482,#1483,#1491,#1498));
#1482 = ORIENTED_EDGE('',*,*,#1314,.F.);
#1483 = ORIENTED_EDGE('',*,*,#1484,.T.);
#1484 = EDGE_CURVE('',#1307,#1485,#1487,.T.);
#1485 = VERTEX_POINT('',#1486);
#1486 = CARTESIAN_POINT('',(82.4,-110.0632503002,9.35));
#1487 = LINE('',#1488,#1489);
#1488 = CARTESIAN_POINT('',(82.,-110.0632503002,9.35));
#1489 = VECTOR('',#1490,1.);
#1490 = DIRECTION('',(1.,0.,0.));
#1491 = ORIENTED_EDGE('',*,*,#1492,.T.);
#1492 = EDGE_CURVE('',#1485,#1460,#1493,.T.);
#1493 = CIRCLE('',#1494,1.);
#1494 = AXIS2_PLACEMENT_3D('',#1495,#1496,#1497);
#1495 = CARTESIAN_POINT('',(82.4,-111.,9.));
#1496 = DIRECTION('',(1.,0.,0.));
#1497 = DIRECTION('',(0.,1.,0.));
#1498 = ORIENTED_EDGE('',*,*,#1459,.F.);
#1499 = CYLINDRICAL_SURFACE('',#1500,1.);
#1500 = AXIS2_PLACEMENT_3D('',#1501,#1502,#1503);
#1501 = CARTESIAN_POINT('',(82.,-111.,9.));
#1502 = DIRECTION('',(-1.,-0.,-0.));
#1503 = DIRECTION('',(0.,1.,0.));
#1504 = ADVANCED_FACE('',(#1505),#1523,.F.);
#1505 = FACE_BOUND('',#1506,.F.);
#1506 = EDGE_LOOP('',(#1507,#1515,#1521,#1522));
#1507 = ORIENTED_EDGE('',*,*,#1508,.T.);
#1508 = EDGE_CURVE('',#1298,#1509,#1511,.T.);
#1509 = VERTEX_POINT('',#1510);
#1510 = CARTESIAN_POINT('',(82.4,-107.9367496997,9.35));
#1511 = LINE('',#1512,#1513);
#1512 = CARTESIAN_POINT('',(82.,-107.9367496997,9.35));
#1513 = VECTOR('',#1514,1.);
#1514 = DIRECTION('',(1.,0.,0.));
#1515 = ORIENTED_EDGE('',*,*,#1516,.T.);
#1516 = EDGE_CURVE('',#1509,#1485,#1517,.T.);
#1517 = LINE('',#1518,#1519);
#1518 = CARTESIAN_POINT('',(82.4,-107.9367496997,9.35));
#1519 = VECTOR('',#1520,1.);
#1520 = DIRECTION('',(0.,-1.,0.));
#1521 = ORIENTED_EDGE('',*,*,#1484,.F.);
#1522 = ORIENTED_EDGE('',*,*,#1306,.F.);
#1523 = PLANE('',#1524);
#1524 = AXIS2_PLACEMENT_3D('',#1525,#1526,#1527);
#1525 = CARTESIAN_POINT('',(82.,-107.9367496997,9.35));
#1526 = DIRECTION('',(0.,0.,-1.));
#1527 = DIRECTION('',(0.,-1.,0.));
#1528 = ADVANCED_FACE('',(#1529),#1554,.F.);
#1529 = FACE_BOUND('',#1530,.F.);
#1530 = EDGE_LOOP('',(#1531,#1539,#1547,#1553));
#1531 = ORIENTED_EDGE('',*,*,#1532,.T.);
#1532 = EDGE_CURVE('',#1272,#1533,#1535,.T.);
#1533 = VERTEX_POINT('',#1534);
#1534 = CARTESIAN_POINT('',(82.4,-110.0632503002,8.65));
#1535 = LINE('',#1536,#1537);
#1536 = CARTESIAN_POINT('',(82.,-110.0632503002,8.65));
#1537 = VECTOR('',#1538,1.);
#1538 = DIRECTION('',(1.,0.,0.));
#1539 = ORIENTED_EDGE('',*,*,#1540,.T.);
#1540 = EDGE_CURVE('',#1533,#1541,#1543,.T.);
#1541 = VERTEX_POINT('',#1542);
#1542 = CARTESIAN_POINT('',(82.4,-107.9367496997,8.65));
#1543 = LINE('',#1544,#1545);
#1544 = CARTESIAN_POINT('',(82.4,-110.0632503002,8.65));
#1545 = VECTOR('',#1546,1.);
#1546 = DIRECTION('',(0.,1.,0.));
#1547 = ORIENTED_EDGE('',*,*,#1548,.F.);
#1548 = EDGE_CURVE('',#1281,#1541,#1549,.T.);
#1549 = LINE('',#1550,#1551);
#1550 = CARTESIAN_POINT('',(82.,-107.9367496997,8.65));
#1551 = VECTOR('',#1552,1.);
#1552 = DIRECTION('',(1.,0.,0.));
#1553 = ORIENTED_EDGE('',*,*,#1280,.F.);
#1554 = PLANE('',#1555);
#1555 = AXIS2_PLACEMENT_3D('',#1556,#1557,#1558);
#1556 = CARTESIAN_POINT('',(82.,-110.0632503002,8.65));
#1557 = DIRECTION('',(0.,0.,1.));
#1558 = DIRECTION('',(0.,1.,0.));
#1559 = ADVANCED_FACE('',(#1560),#1579,.T.);
#1560 = FACE_BOUND('',#1561,.F.);
#1561 = EDGE_LOOP('',(#1562,#1563,#1564,#1572));
#1562 = ORIENTED_EDGE('',*,*,#1532,.F.);
#1563 = ORIENTED_EDGE('',*,*,#1271,.F.);
#1564 = ORIENTED_EDGE('',*,*,#1565,.T.);
#1565 = EDGE_CURVE('',#1264,#1566,#1568,.T.);
#1566 = VERTEX_POINT('',#1567);
#1567 = CARTESIAN_POINT('',(82.4,-111.35,9.93674969976));
#1568 = LINE('',#1569,#1570);
#1569 = CARTESIAN_POINT('',(82.,-111.35,9.93674969976));
#1570 = VECTOR('',#1571,1.);
#1571 = DIRECTION('',(1.,0.,0.));
#1572 = ORIENTED_EDGE('',*,*,#1573,.T.);
#1573 = EDGE_CURVE('',#1566,#1533,#1574,.T.);
#1574 = CIRCLE('',#1575,1.);
#1575 = AXIS2_PLACEMENT_3D('',#1576,#1577,#1578);
#1576 = CARTESIAN_POINT('',(82.4,-111.,9.));
#1577 = DIRECTION('',(1.,0.,0.));
#1578 = DIRECTION('',(0.,1.,0.));
#1579 = CYLINDRICAL_SURFACE('',#1580,1.);
#1580 = AXIS2_PLACEMENT_3D('',#1581,#1582,#1583);
#1581 = CARTESIAN_POINT('',(82.,-111.,9.));
#1582 = DIRECTION('',(-1.,-0.,-0.));
#1583 = DIRECTION('',(0.,1.,0.));
#1584 = ADVANCED_FACE('',(#1585),#1603,.F.);
#1585 = FACE_BOUND('',#1586,.F.);
#1586 = EDGE_LOOP('',(#1587,#1595,#1601,#1602));
#1587 = ORIENTED_EDGE('',*,*,#1588,.T.);
#1588 = EDGE_CURVE('',#1255,#1589,#1591,.T.);
#1589 = VERTEX_POINT('',#1590);
#1590 = CARTESIAN_POINT('',(82.4,-111.35,12.06325030024));
#1591 = LINE('',#1592,#1593);
#1592 = CARTESIAN_POINT('',(82.,-111.35,12.06325030024));
#1593 = VECTOR('',#1594,1.);
#1594 = DIRECTION('',(1.,0.,0.));
#1595 = ORIENTED_EDGE('',*,*,#1596,.T.);
#1596 = EDGE_CURVE('',#1589,#1566,#1597,.T.);
#1597 = LINE('',#1598,#1599);
#1598 = CARTESIAN_POINT('',(82.4,-111.35,12.06325030024));
#1599 = VECTOR('',#1600,1.);
#1600 = DIRECTION('',(0.,0.,-1.));
#1601 = ORIENTED_EDGE('',*,*,#1565,.F.);
#1602 = ORIENTED_EDGE('',*,*,#1263,.F.);
#1603 = PLANE('',#1604);
#1604 = AXIS2_PLACEMENT_3D('',#1605,#1606,#1607);
#1605 = CARTESIAN_POINT('',(82.,-111.35,12.06325030024));
#1606 = DIRECTION('',(0.,1.,0.));
#1607 = DIRECTION('',(0.,0.,-1.));
#1608 = ADVANCED_FACE('',(#1609),#1621,.T.);
#1609 = FACE_BOUND('',#1610,.F.);
#1610 = EDGE_LOOP('',(#1611,#1612,#1613,#1620));
#1611 = ORIENTED_EDGE('',*,*,#1254,.F.);
#1612 = ORIENTED_EDGE('',*,*,#1388,.T.);
#1613 = ORIENTED_EDGE('',*,*,#1614,.T.);
#1614 = EDGE_CURVE('',#1381,#1589,#1615,.T.);
#1615 = CIRCLE('',#1616,1.);
#1616 = AXIS2_PLACEMENT_3D('',#1617,#1618,#1619);
#1617 = CARTESIAN_POINT('',(82.4,-111.,13.));
#1618 = DIRECTION('',(1.,0.,0.));
#1619 = DIRECTION('',(0.,1.,0.));
#1620 = ORIENTED_EDGE('',*,*,#1588,.F.);
#1621 = CYLINDRICAL_SURFACE('',#1622,1.);
#1622 = AXIS2_PLACEMENT_3D('',#1623,#1624,#1625);
#1623 = CARTESIAN_POINT('',(82.,-111.,13.));
#1624 = DIRECTION('',(-1.,-0.,-0.));
#1625 = DIRECTION('',(0.,1.,0.));
#1626 = ADVANCED_FACE('',(#1627,#1671,#1682,#1693,#1704),#1715,.T.);
#1627 = FACE_BOUND('',#1628,.T.);
#1628 = EDGE_LOOP('',(#1629,#1630,#1631,#1632,#1633,#1634,#1643,#1650,
    #1651,#1652,#1653,#1654,#1655,#1664));
#1629 = ORIENTED_EDGE('',*,*,#1380,.T.);
#1630 = ORIENTED_EDGE('',*,*,#1614,.T.);
#1631 = ORIENTED_EDGE('',*,*,#1596,.T.);
#1632 = ORIENTED_EDGE('',*,*,#1573,.T.);
#1633 = ORIENTED_EDGE('',*,*,#1540,.T.);
#1634 = ORIENTED_EDGE('',*,*,#1635,.T.);
#1635 = EDGE_CURVE('',#1541,#1636,#1638,.T.);
#1636 = VERTEX_POINT('',#1637);
#1637 = CARTESIAN_POINT('',(82.4,-106.,9.));
#1638 = CIRCLE('',#1639,1.);
#1639 = AXIS2_PLACEMENT_3D('',#1640,#1641,#1642);
#1640 = CARTESIAN_POINT('',(82.4,-107.,9.));
#1641 = DIRECTION('',(1.,0.,0.));
#1642 = DIRECTION('',(0.,1.,0.));
#1643 = ORIENTED_EDGE('',*,*,#1644,.T.);
#1644 = EDGE_CURVE('',#1636,#1509,#1645,.T.);
#1645 = CIRCLE('',#1646,1.);
#1646 = AXIS2_PLACEMENT_3D('',#1647,#1648,#1649);
#1647 = CARTESIAN_POINT('',(82.4,-107.,9.));
#1648 = DIRECTION('',(1.,0.,0.));
#1649 = DIRECTION('',(0.,1.,0.));
#1650 = ORIENTED_EDGE('',*,*,#1516,.T.);
#1651 = ORIENTED_EDGE('',*,*,#1492,.T.);
#1652 = ORIENTED_EDGE('',*,*,#1467,.T.);
#1653 = ORIENTED_EDGE('',*,*,#1444,.T.);
#1654 = ORIENTED_EDGE('',*,*,#1411,.T.);
#1655 = ORIENTED_EDGE('',*,*,#1656,.T.);
#1656 = EDGE_CURVE('',#1412,#1657,#1659,.T.);
#1657 = VERTEX_POINT('',#1658);
#1658 = CARTESIAN_POINT('',(82.4,-106.,13.));
#1659 = CIRCLE('',#1660,1.);
#1660 = AXIS2_PLACEMENT_3D('',#1661,#1662,#1663);
#1661 = CARTESIAN_POINT('',(82.4,-107.,13.));
#1662 = DIRECTION('',(1.,0.,0.));
#1663 = DIRECTION('',(0.,1.,0.));
#1664 = ORIENTED_EDGE('',*,*,#1665,.T.);
#1665 = EDGE_CURVE('',#1657,#1373,#1666,.T.);
#1666 = CIRCLE('',#1667,1.);
#1667 = AXIS2_PLACEMENT_3D('',#1668,#1669,#1670);
#1668 = CARTESIAN_POINT('',(82.4,-107.,13.));
#1669 = DIRECTION('',(1.,0.,0.));
#1670 = DIRECTION('',(0.,1.,0.));
#1671 = FACE_BOUND('',#1672,.T.);
#1672 = EDGE_LOOP('',(#1673));
#1673 = ORIENTED_EDGE('',*,*,#1674,.F.);
#1674 = EDGE_CURVE('',#1675,#1675,#1677,.T.);
#1675 = VERTEX_POINT('',#1676);
#1676 = CARTESIAN_POINT('',(82.4,-106.5,13.));
#1677 = CIRCLE('',#1678,0.5);
#1678 = AXIS2_PLACEMENT_3D('',#1679,#1680,#1681);
#1679 = CARTESIAN_POINT('',(82.4,-107.,13.));
#1680 = DIRECTION('',(1.,0.,0.));
#1681 = DIRECTION('',(0.,1.,0.));
#1682 = FACE_BOUND('',#1683,.T.);
#1683 = EDGE_LOOP('',(#1684));
#1684 = ORIENTED_EDGE('',*,*,#1685,.F.);
#1685 = EDGE_CURVE('',#1686,#1686,#1688,.T.);
#1686 = VERTEX_POINT('',#1687);
#1687 = CARTESIAN_POINT('',(82.4,-110.5,13.));
#1688 = CIRCLE('',#1689,0.5);
#1689 = AXIS2_PLACEMENT_3D('',#1690,#1691,#1692);
#1690 = CARTESIAN_POINT('',(82.4,-111.,13.));
#1691 = DIRECTION('',(1.,0.,0.));
#1692 = DIRECTION('',(0.,1.,0.));
#1693 = FACE_BOUND('',#1694,.T.);
#1694 = EDGE_LOOP('',(#1695));
#1695 = ORIENTED_EDGE('',*,*,#1696,.F.);
#1696 = EDGE_CURVE('',#1697,#1697,#1699,.T.);
#1697 = VERTEX_POINT('',#1698);
#1698 = CARTESIAN_POINT('',(82.4,-110.5,9.));
#1699 = CIRCLE('',#1700,0.5);
#1700 = AXIS2_PLACEMENT_3D('',#1701,#1702,#1703);
#1701 = CARTESIAN_POINT('',(82.4,-111.,9.));
#1702 = DIRECTION('',(1.,0.,0.));
#1703 = DIRECTION('',(0.,1.,0.));
#1704 = FACE_BOUND('',#1705,.T.);
#1705 = EDGE_LOOP('',(#1706));
#1706 = ORIENTED_EDGE('',*,*,#1707,.F.);
#1707 = EDGE_CURVE('',#1708,#1708,#1710,.T.);
#1708 = VERTEX_POINT('',#1709);
#1709 = CARTESIAN_POINT('',(82.4,-106.5,9.));
#1710 = CIRCLE('',#1711,0.5);
#1711 = AXIS2_PLACEMENT_3D('',#1712,#1713,#1714);
#1712 = CARTESIAN_POINT('',(82.4,-107.,9.));
#1713 = DIRECTION('',(1.,0.,0.));
#1714 = DIRECTION('',(0.,1.,0.));
#1715 = PLANE('',#1716);
#1716 = AXIS2_PLACEMENT_3D('',#1717,#1718,#1719);
#1717 = CARTESIAN_POINT('',(82.4,-109.1495142278,11.));
#1718 = DIRECTION('',(1.,0.,0.));
#1719 = DIRECTION('',(0.,0.,1.));
#1720 = ADVANCED_FACE('',(#1721),#1740,.F.);
#1721 = FACE_BOUND('',#1722,.T.);
#1722 = EDGE_LOOP('',(#1723,#1731,#1732,#1733));
#1723 = ORIENTED_EDGE('',*,*,#1724,.T.);
#1724 = EDGE_CURVE('',#1725,#1675,#1727,.T.);
#1725 = VERTEX_POINT('',#1726);
#1726 = CARTESIAN_POINT('',(82.,-106.5,13.));
#1727 = LINE('',#1728,#1729);
#1728 = CARTESIAN_POINT('',(82.,-106.5,13.));
#1729 = VECTOR('',#1730,1.);
#1730 = DIRECTION('',(1.,0.,0.));
#1731 = ORIENTED_EDGE('',*,*,#1674,.T.);
#1732 = ORIENTED_EDGE('',*,*,#1724,.F.);
#1733 = ORIENTED_EDGE('',*,*,#1734,.F.);
#1734 = EDGE_CURVE('',#1725,#1725,#1735,.T.);
#1735 = CIRCLE('',#1736,0.5);
#1736 = AXIS2_PLACEMENT_3D('',#1737,#1738,#1739);
#1737 = CARTESIAN_POINT('',(82.,-107.,13.));
#1738 = DIRECTION('',(1.,0.,0.));
#1739 = DIRECTION('',(0.,1.,0.));
#1740 = CYLINDRICAL_SURFACE('',#1741,0.5);
#1741 = AXIS2_PLACEMENT_3D('',#1742,#1743,#1744);
#1742 = CARTESIAN_POINT('',(82.,-107.,13.));
#1743 = DIRECTION('',(-1.,-0.,-0.));
#1744 = DIRECTION('',(0.,1.,0.));
#1745 = ADVANCED_FACE('',(#1746),#1749,.F.);
#1746 = FACE_BOUND('',#1747,.F.);
#1747 = EDGE_LOOP('',(#1748));
#1748 = ORIENTED_EDGE('',*,*,#1734,.F.);
#1749 = PLANE('',#1750);
#1750 = AXIS2_PLACEMENT_3D('',#1751,#1752,#1753);
#1751 = CARTESIAN_POINT('',(82.,-224.8,0.));
#1752 = DIRECTION('',(-1.,0.,0.));
#1753 = DIRECTION('',(0.,1.,0.));
#1754 = ADVANCED_FACE('',(#1755),#1774,.F.);
#1755 = FACE_BOUND('',#1756,.T.);
#1756 = EDGE_LOOP('',(#1757,#1765,#1766,#1767));
#1757 = ORIENTED_EDGE('',*,*,#1758,.T.);
#1758 = EDGE_CURVE('',#1759,#1686,#1761,.T.);
#1759 = VERTEX_POINT('',#1760);
#1760 = CARTESIAN_POINT('',(82.,-110.5,13.));
#1761 = LINE('',#1762,#1763);
#1762 = CARTESIAN_POINT('',(82.,-110.5,13.));
#1763 = VECTOR('',#1764,1.);
#1764 = DIRECTION('',(1.,0.,0.));
#1765 = ORIENTED_EDGE('',*,*,#1685,.T.);
#1766 = ORIENTED_EDGE('',*,*,#1758,.F.);
#1767 = ORIENTED_EDGE('',*,*,#1768,.F.);
#1768 = EDGE_CURVE('',#1759,#1759,#1769,.T.);
#1769 = CIRCLE('',#1770,0.5);
#1770 = AXIS2_PLACEMENT_3D('',#1771,#1772,#1773);
#1771 = CARTESIAN_POINT('',(82.,-111.,13.));
#1772 = DIRECTION('',(1.,0.,0.));
#1773 = DIRECTION('',(0.,1.,0.));
#1774 = CYLINDRICAL_SURFACE('',#1775,0.5);
#1775 = AXIS2_PLACEMENT_3D('',#1776,#1777,#1778);
#1776 = CARTESIAN_POINT('',(82.,-111.,13.));
#1777 = DIRECTION('',(-1.,-0.,-0.));
#1778 = DIRECTION('',(0.,1.,0.));
#1779 = ADVANCED_FACE('',(#1780),#1783,.F.);
#1780 = FACE_BOUND('',#1781,.F.);
#1781 = EDGE_LOOP('',(#1782));
#1782 = ORIENTED_EDGE('',*,*,#1768,.F.);
#1783 = PLANE('',#1784);
#1784 = AXIS2_PLACEMENT_3D('',#1785,#1786,#1787);
#1785 = CARTESIAN_POINT('',(82.,-224.8,0.));
#1786 = DIRECTION('',(-1.,0.,0.));
#1787 = DIRECTION('',(0.,1.,0.));
#1788 = ADVANCED_FACE('',(#1789),#1808,.F.);
#1789 = FACE_BOUND('',#1790,.T.);
#1790 = EDGE_LOOP('',(#1791,#1799,#1800,#1801));
#1791 = ORIENTED_EDGE('',*,*,#1792,.T.);
#1792 = EDGE_CURVE('',#1793,#1697,#1795,.T.);
#1793 = VERTEX_POINT('',#1794);
#1794 = CARTESIAN_POINT('',(82.,-110.5,9.));
#1795 = LINE('',#1796,#1797);
#1796 = CARTESIAN_POINT('',(82.,-110.5,9.));
#1797 = VECTOR('',#1798,1.);
#1798 = DIRECTION('',(1.,0.,0.));
#1799 = ORIENTED_EDGE('',*,*,#1696,.T.);
#1800 = ORIENTED_EDGE('',*,*,#1792,.F.);
#1801 = ORIENTED_EDGE('',*,*,#1802,.F.);
#1802 = EDGE_CURVE('',#1793,#1793,#1803,.T.);
#1803 = CIRCLE('',#1804,0.5);
#1804 = AXIS2_PLACEMENT_3D('',#1805,#1806,#1807);
#1805 = CARTESIAN_POINT('',(82.,-111.,9.));
#1806 = DIRECTION('',(1.,0.,0.));
#1807 = DIRECTION('',(0.,1.,0.));
#1808 = CYLINDRICAL_SURFACE('',#1809,0.5);
#1809 = AXIS2_PLACEMENT_3D('',#1810,#1811,#1812);
#1810 = CARTESIAN_POINT('',(82.,-111.,9.));
#1811 = DIRECTION('',(-1.,-0.,-0.));
#1812 = DIRECTION('',(0.,1.,0.));
#1813 = ADVANCED_FACE('',(#1814),#1817,.F.);
#1814 = FACE_BOUND('',#1815,.F.);
#1815 = EDGE_LOOP('',(#1816));
#1816 = ORIENTED_EDGE('',*,*,#1802,.F.);
#1817 = PLANE('',#1818);
#1818 = AXIS2_PLACEMENT_3D('',#1819,#1820,#1821);
#1819 = CARTESIAN_POINT('',(82.,-224.8,0.));
#1820 = DIRECTION('',(-1.,0.,0.));
#1821 = DIRECTION('',(0.,1.,0.));
#1822 = ADVANCED_FACE('',(#1823),#1842,.F.);
#1823 = FACE_BOUND('',#1824,.T.);
#1824 = EDGE_LOOP('',(#1825,#1833,#1834,#1835));
#1825 = ORIENTED_EDGE('',*,*,#1826,.T.);
#1826 = EDGE_CURVE('',#1827,#1708,#1829,.T.);
#1827 = VERTEX_POINT('',#1828);
#1828 = CARTESIAN_POINT('',(82.,-106.5,9.));
#1829 = LINE('',#1830,#1831);
#1830 = CARTESIAN_POINT('',(82.,-106.5,9.));
#1831 = VECTOR('',#1832,1.);
#1832 = DIRECTION('',(1.,0.,0.));
#1833 = ORIENTED_EDGE('',*,*,#1707,.T.);
#1834 = ORIENTED_EDGE('',*,*,#1826,.F.);
#1835 = ORIENTED_EDGE('',*,*,#1836,.F.);
#1836 = EDGE_CURVE('',#1827,#1827,#1837,.T.);
#1837 = CIRCLE('',#1838,0.5);
#1838 = AXIS2_PLACEMENT_3D('',#1839,#1840,#1841);
#1839 = CARTESIAN_POINT('',(82.,-107.,9.));
#1840 = DIRECTION('',(1.,0.,0.));
#1841 = DIRECTION('',(0.,1.,0.));
#1842 = CYLINDRICAL_SURFACE('',#1843,0.5);
#1843 = AXIS2_PLACEMENT_3D('',#1844,#1845,#1846);
#1844 = CARTESIAN_POINT('',(82.,-107.,9.));
#1845 = DIRECTION('',(-1.,-0.,-0.));
#1846 = DIRECTION('',(0.,1.,0.));
#1847 = ADVANCED_FACE('',(#1848),#1851,.F.);
#1848 = FACE_BOUND('',#1849,.F.);
#1849 = EDGE_LOOP('',(#1850));
#1850 = ORIENTED_EDGE('',*,*,#1836,.F.);
#1851 = PLANE('',#1852);
#1852 = AXIS2_PLACEMENT_3D('',#1853,#1854,#1855);
#1853 = CARTESIAN_POINT('',(82.,-224.8,0.));
#1854 = DIRECTION('',(-1.,0.,0.));
#1855 = DIRECTION('',(0.,1.,0.));
#1856 = ADVANCED_FACE('',(#1857),#1865,.T.);
#1857 = FACE_BOUND('',#1858,.F.);
#1858 = EDGE_LOOP('',(#1859,#1860,#1861,#1862,#1863,#1864));
#1859 = ORIENTED_EDGE('',*,*,#1419,.T.);
#1860 = ORIENTED_EDGE('',*,*,#1656,.T.);
#1861 = ORIENTED_EDGE('',*,*,#1665,.T.);
#1862 = ORIENTED_EDGE('',*,*,#1372,.F.);
#1863 = ORIENTED_EDGE('',*,*,#1357,.F.);
#1864 = ORIENTED_EDGE('',*,*,#1348,.F.);
#1865 = CYLINDRICAL_SURFACE('',#1866,1.);
#1866 = AXIS2_PLACEMENT_3D('',#1867,#1868,#1869);
#1867 = CARTESIAN_POINT('',(82.,-107.,13.));
#1868 = DIRECTION('',(-1.,-0.,-0.));
#1869 = DIRECTION('',(0.,1.,0.));
#1870 = ADVANCED_FACE('',(#1871),#1879,.T.);
#1871 = FACE_BOUND('',#1872,.F.);
#1872 = EDGE_LOOP('',(#1873,#1874,#1875,#1876,#1877,#1878));
#1873 = ORIENTED_EDGE('',*,*,#1548,.T.);
#1874 = ORIENTED_EDGE('',*,*,#1635,.T.);
#1875 = ORIENTED_EDGE('',*,*,#1644,.T.);
#1876 = ORIENTED_EDGE('',*,*,#1508,.F.);
#1877 = ORIENTED_EDGE('',*,*,#1297,.F.);
#1878 = ORIENTED_EDGE('',*,*,#1288,.F.);
#1879 = CYLINDRICAL_SURFACE('',#1880,1.);
#1880 = AXIS2_PLACEMENT_3D('',#1881,#1882,#1883);
#1881 = CARTESIAN_POINT('',(82.,-107.,9.));
#1882 = DIRECTION('',(-1.,-0.,-0.));
#1883 = DIRECTION('',(0.,1.,0.));
#1884 = ( GEOMETRIC_REPRESENTATION_CONTEXT(3) 
GLOBAL_UNCERTAINTY_ASSIGNED_CONTEXT((#1888)) 
GLOBAL_UNIT_ASSIGNED_CONTEXT((#1885,#1886,#1887)) REPRESENTATION_CONTEXT
('Context #1','3D Context with UNIT and UNCERTAINTY') );
#1885 = ( LENGTH_UNIT() NAMED_UNIT(*) SI_UNIT(.MILLI.,.METRE.) );
#1886 = ( NAMED_UNIT(*) PLANE_ANGLE_UNIT() SI_UNIT($,.RADIAN.) );
#1887 = ( NAMED_UNIT(*) SI_UNIT($,.STERADIAN.) SOLID_ANGLE_UNIT() );
#1888 = UNCERTAINTY_MEASURE_WITH_UNIT(LENGTH_MEASURE(1.E-07),#1885,
  'distance_accuracy_value','confusion accuracy');
#1889 = PRODUCT_RELATED_PRODUCT_CATEGORY('part',$,(#7));
#1890 = MECHANICAL_DESIGN_GEOMETRIC_PRESENTATION_REPRESENTATION('',(
    #1891),#1884);
#1891 = STYLED_ITEM('color',(#1892),#15);
#1892 = PRESENTATION_STYLE_ASSIGNMENT((#1893,#1899));
#1893 = SURFACE_STYLE_USAGE(.BOTH.,#1894);
#1894 = SURFACE_SIDE_STYLE('',(#1895));
#1895 = SURFACE_STYLE_FILL_AREA(#1896);
#1896 = FILL_AREA_STYLE('',(#1897));
#1897 = FILL_AREA_STYLE_COLOUR('',#1898);
#1898 = COLOUR_RGB('',0.254901970902,0.592156890614,0.274509816483);
#1899 = CURVE_STYLE('',#1900,POSITIVE_LENGTH_MEASURE(0.1),#1901);
#1900 = DRAUGHTING_PRE_DEFINED_CURVE_FONT('continuous');
#1901 = COLOUR_RGB('',9.803921802644E-02,9.803921802644E-02,
  9.803921802644E-02);
ENDSEC;
END-ISO-10303-21;
